<?xml version="1.0" encoding="UTF-8" standalone="no"?>
<svg
   xmlns:dc="http://purl.org/dc/elements/1.1/"
   xmlns:cc="http://creativecommons.org/ns#"
   xmlns:rdf="http://www.w3.org/1999/02/22-rdf-syntax-ns#"
   xmlns:svg="http://www.w3.org/2000/svg"
   xmlns="http://www.w3.org/2000/svg"
   xmlns:xlink="http://www.w3.org/1999/xlink"
   xmlns:sodipodi="http://sodipodi.sourceforge.net/DTD/sodipodi-0.dtd"
   xmlns:inkscape="http://www.inkscape.org/namespaces/inkscape"
   sodipodi:docname="desktop-cover.svg"
   inkscape:version="1.0 (1.0+r73+1)"
   id="svg8"
   version="1.1"
   viewBox="0 0 105 148"
   height="148mm"
   width="105mm"
   inkscape:export-filename="/home/yume/prods/books/alpha/bhikkhu-manual/bhikkhu-manual_covers/desktop-cover/desktop-cover.png"
   inkscape:export-xdpi="120.952"
   inkscape:export-ydpi="120.952">
  <defs
     id="defs2">
    <clipPath
       clipPathUnits="userSpaceOnUse"
       id="clipPath1963">
      <rect
         style="opacity:1;fill:#00ffff;fill-opacity:0.463168;stroke-width:0.264999"
         id="rect1965"
         width="111"
         height="154"
         x="0"
         y="0" />
    </clipPath>
    <clipPath
       clipPathUnits="userSpaceOnUse"
       id="clipPath2781">
      <rect
         style="opacity:1;fill:#00ffff;fill-opacity:0.463168;stroke-width:0.264999"
         id="rect2783"
         width="111"
         height="154"
         x="0"
         y="0" />
    </clipPath>
    <filter
       inkscape:collect="always"
       style="color-interpolation-filters:sRGB"
       id="filter5334"
       x="-0.044815205"
       width="1.0896304"
       y="-0.090748399"
       height="1.1814969">
      <feGaussianBlur
         inkscape:collect="always"
         stdDeviation="1.3536111"
         id="feGaussianBlur5332" />
    </filter>
    <clipPath
       clipPathUnits="userSpaceOnUse"
       id="clipPath1599">
      <rect
         style="opacity:1;fill:#00ffff;fill-opacity:0.463168;stroke-width:0.264999"
         id="rect1601"
         width="105"
         height="148"
         x="2.9999998"
         y="3.0000002" />
    </clipPath>
  </defs>
  <sodipodi:namedview
     inkscape:snap-bbox-midpoints="true"
     inkscape:snap-bbox="true"
     inkscape:window-maximized="1"
     inkscape:window-y="37"
     inkscape:window-x="0"
     inkscape:window-height="1043"
     inkscape:window-width="1920"
     inkscape:snap-object-midpoints="true"
     inkscape:guide-bbox="true"
     showguides="true"
     inkscape:snap-page="true"
     width="111mm"
     showgrid="false"
     inkscape:document-rotation="0"
     inkscape:current-layer="g2035"
     inkscape:document-units="mm"
     inkscape:cy="267.09837"
     inkscape:cx="192.80109"
     inkscape:zoom="1.5338682"
     inkscape:pageshadow="2"
     inkscape:pageopacity="0.0"
     borderopacity="1.0"
     bordercolor="#666666"
     pagecolor="#ffffff"
     id="base"
     inkscape:snap-global="true"
     inkscape:snap-center="true"
     fit-margin-top="0"
     fit-margin-left="0"
     fit-margin-right="0"
     fit-margin-bottom="0"
     inkscape:snap-to-guides="false">
    <sodipodi:guide
       id="guide835"
       orientation="1,0"
       position="52.5,74.000001" />
    <sodipodi:guide
       id="guide837"
       orientation="0,-1"
       position="52.5,74.000001" />
    <sodipodi:guide
       id="guide839"
       orientation="1,0"
       position="2.4973189e-08,148" />
    <sodipodi:guide
       id="guide841"
       orientation="1,0"
       position="105,148" />
    <sodipodi:guide
       id="guide843"
       orientation="0,-1"
       position="105,148" />
    <sodipodi:guide
       id="guide845"
       orientation="0,-1"
       position="105,2.249732e-07" />
  </sodipodi:namedview>
  <metadata
     id="metadata5">
    <rdf:RDF>
      <cc:Work
         rdf:about="">
        <dc:format>image/svg+xml</dc:format>
        <dc:type
           rdf:resource="http://purl.org/dc/dcmitype/StillImage" />
        <dc:title />
      </cc:Work>
    </rdf:RDF>
  </metadata>
  <g
     sodipodi:insensitive="true"
     style="display:inline;opacity:1"
     inkscape:label="bg image"
     id="g3116"
     inkscape:groupmode="layer"
     transform="translate(-2.9999998,-3.0000002)">
    <image
       sodipodi:absref="/home/yume/prods/books/alpha/bhikkhu-manual/bhikkhu-manual_covers/images/leaf.jpg"
       xlink:href="../images/leaf.jpg"
       clip-path="url(#clipPath1599)"
       id="image3114"
       preserveAspectRatio="none"
       height="243.93878"
       width="162.60196"
       x="-26.480846"
       y="-44.445251" />
  </g>
  <g
     inkscape:groupmode="layer"
     id="layer10"
     inkscape:label="wheel image"
     style="display:inline"
     transform="translate(-2.9999998,-3.0000002)"
     sodipodi:insensitive="true">
    <g
       transform="matrix(0.859375,0,0,0.859375,3.3046875,3.0618703)"
       id="g2035">
      <g
         transform="translate(5.2360165,8.5625002)"
         id="g2039">
        <circle
           style="fill:#000000;fill-opacity:0.304775;stroke-width:0.264999"
           id="path2880"
           cx="55.5"
           cy="53.7733"
           r="32" />
        <image
           sodipodi:absref="/home/yume/prods/books/alpha/bhikkhu-manual/bhikkhu-manual_covers/images/dhammacakka-circle-outline.png"
           xlink:href="../images/dhammacakka-circle-outline.png"
           y="23.773298"
           x="25.5"
           width="60"
           height="60"
           preserveAspectRatio="none"
           id="image2876" />
      </g>
    </g>
  </g>
  <g
     sodipodi:insensitive="true"
     style="display:inline;mix-blend-mode:normal;filter:url(#filter5334)"
     inkscape:label="text blur"
     id="g5087"
     inkscape:groupmode="layer"
     transform="translate(-2.9999998,-3.0000002)">
    <g
       style="font-style:normal;font-variant:normal;font-weight:normal;font-stretch:normal;font-size:7.05556px;line-height:1.25;font-family:'Nunito Sans';-inkscape-font-specification:'Nunito Sans Normal';font-variant-ligatures:normal;font-variant-caps:normal;font-variant-numeric:normal;font-variant-east-asian:normal;letter-spacing:0.264583px;word-spacing:0.79375px;display:inline;fill:#000000;fill-opacity:1;stroke:none;stroke-width:0.264583"
       id="text5077"
       aria-label="BHIKKHU MANUAL">
      <path
         inkscape:connector-curvature="0"
         id="path5179"
         style="font-style:normal;font-variant:normal;font-weight:normal;font-stretch:normal;font-size:7.05556px;font-family:'Nunito Sans';-inkscape-font-specification:'Nunito Sans Normal';font-variant-ligatures:normal;font-variant-caps:normal;font-variant-numeric:normal;font-variant-east-asian:normal;letter-spacing:0.264583px;word-spacing:0.79375px;fill:#000000;fill-opacity:1;stroke-width:0.264583"
         d="m 24.90533,104.81677 q 0.43039,0.11289 0.663223,0.42334 0.239889,0.31044 0.239889,0.77611 0,0.65617 -0.430389,1.00895 -0.430389,0.34572 -1.220612,0.34572 h -2.074335 v -4.97417 h 1.996724 q 0.769056,0 1.19239,0.33866 0.423333,0.33867 0.423333,0.95956 0,0.40217 -0.211667,0.69145 -0.204611,0.28927 -0.578556,0.43038 z m -2.250723,-0.21166 h 1.340556 q 0.557389,0 0.839612,-0.22578 0.289278,-0.22578 0.289278,-0.65617 0,-0.84666 -1.12889,-0.84666 h -1.340556 z m 1.44639,2.286 q 0.585611,0 0.860778,-0.21167 0.282222,-0.21872 0.282222,-0.67733 0,-0.91722 -1.143,-0.91722 h -1.44639 v 1.80622 z" />
      <path
         inkscape:connector-curvature="0"
         id="path5181"
         style="font-style:normal;font-variant:normal;font-weight:normal;font-stretch:normal;font-size:7.05556px;font-family:'Nunito Sans';-inkscape-font-specification:'Nunito Sans Normal';font-variant-ligatures:normal;font-variant-caps:normal;font-variant-numeric:normal;font-variant-east-asian:normal;letter-spacing:0.264583px;word-spacing:0.79375px;fill:#000000;fill-opacity:1;stroke-width:0.264583"
         d="m 30.650871,102.39672 h 0.5715 v 4.97417 h -0.5715 v -2.27895 h -2.977446 v 2.27895 h -0.571501 v -4.97417 h 0.571501 v 2.20133 h 2.977446 z" />
      <path
         inkscape:connector-curvature="0"
         id="path5183"
         style="font-style:normal;font-variant:normal;font-weight:normal;font-stretch:normal;font-size:7.05556px;font-family:'Nunito Sans';-inkscape-font-specification:'Nunito Sans Normal';font-variant-ligatures:normal;font-variant-caps:normal;font-variant-numeric:normal;font-variant-east-asian:normal;letter-spacing:0.264583px;word-spacing:0.79375px;fill:#000000;fill-opacity:1;stroke-width:0.264583"
         d="m 32.713299,107.37089 v -4.97417 h 0.578556 v 4.97417 z" />
      <path
         inkscape:connector-curvature="0"
         id="path5185"
         style="font-style:normal;font-variant:normal;font-weight:normal;font-stretch:normal;font-size:7.05556px;font-family:'Nunito Sans';-inkscape-font-specification:'Nunito Sans Normal';font-variant-ligatures:normal;font-variant-caps:normal;font-variant-numeric:normal;font-variant-east-asian:normal;letter-spacing:0.264583px;word-spacing:0.79375px;fill:#000000;fill-opacity:1;stroke-width:0.264583"
         d="m 38.670726,107.37089 h -0.747889 l -2.561168,-2.36361 v 2.36361 h -0.578556 v -4.97417 h 0.578556 v 2.286 l 2.441224,-2.286 h 0.733778 l -2.596446,2.42005 z" />
      <path
         inkscape:connector-curvature="0"
         id="path5187"
         style="font-style:normal;font-variant:normal;font-weight:normal;font-stretch:normal;font-size:7.05556px;font-family:'Nunito Sans';-inkscape-font-specification:'Nunito Sans Normal';font-variant-ligatures:normal;font-variant-caps:normal;font-variant-numeric:normal;font-variant-east-asian:normal;letter-spacing:0.264583px;word-spacing:0.79375px;fill:#000000;fill-opacity:1;stroke-width:0.264583"
         d="m 43.372596,107.37089 h -0.747889 l -2.561168,-2.36361 v 2.36361 h -0.578556 v -4.97417 h 0.578556 v 2.286 l 2.441224,-2.286 h 0.733778 l -2.596446,2.42005 z" />
      <path
         inkscape:connector-curvature="0"
         id="path5189"
         style="font-style:normal;font-variant:normal;font-weight:normal;font-stretch:normal;font-size:7.05556px;font-family:'Nunito Sans';-inkscape-font-specification:'Nunito Sans Normal';font-variant-ligatures:normal;font-variant-caps:normal;font-variant-numeric:normal;font-variant-east-asian:normal;letter-spacing:0.264583px;word-spacing:0.79375px;fill:#000000;fill-opacity:1;stroke-width:0.264583"
         d="m 47.735798,102.39672 h 0.5715 v 4.97417 h -0.5715 v -2.27895 h -2.977447 v 2.27895 h -0.5715 v -4.97417 h 0.5715 v 2.20133 h 2.977447 z" />
      <path
         inkscape:connector-curvature="0"
         id="path5191"
         style="font-style:normal;font-variant:normal;font-weight:normal;font-stretch:normal;font-size:7.05556px;font-family:'Nunito Sans';-inkscape-font-specification:'Nunito Sans Normal';font-variant-ligatures:normal;font-variant-caps:normal;font-variant-numeric:normal;font-variant-east-asian:normal;letter-spacing:0.264583px;word-spacing:0.79375px;fill:#000000;fill-opacity:1;stroke-width:0.264583"
         d="m 51.738504,107.42733 q -0.973668,0 -1.474612,-0.508 -0.500945,-0.508 -0.500945,-1.49578 v -3.02683 h 0.5715 v 3.07622 q 0,0.72672 0.352778,1.09361 0.359834,0.36689 1.051279,0.36689 0.691445,0 1.044223,-0.36689 0.352778,-0.36689 0.352778,-1.09361 v -3.07622 h 0.578556 v 3.02683 q 0,0.98073 -0.508001,1.49578 -0.500944,0.508 -1.467556,0.508 z" />
      <path
         inkscape:connector-curvature="0"
         id="path5193"
         style="font-style:normal;font-variant:normal;font-weight:normal;font-stretch:normal;font-size:7.05556px;font-family:'Nunito Sans';-inkscape-font-specification:'Nunito Sans Normal';font-variant-ligatures:normal;font-variant-caps:normal;font-variant-numeric:normal;font-variant-east-asian:normal;letter-spacing:0.264583px;word-spacing:0.79375px;fill:#000000;fill-opacity:1;stroke-width:0.264583"
         d="m 62.278957,102.39672 h 0.472723 v 4.97417 h -0.529167 l 0.0071,-3.85234 -1.615723,3.06212 h -0.409223 l -1.622778,-3.0339 0.0071,3.82412 h -0.536222 v -4.97417 h 0.479778 l 1.883834,3.60539 z" />
      <path
         inkscape:connector-curvature="0"
         id="path5195"
         style="font-style:normal;font-variant:normal;font-weight:normal;font-stretch:normal;font-size:7.05556px;font-family:'Nunito Sans';-inkscape-font-specification:'Nunito Sans Normal';font-variant-ligatures:normal;font-variant-caps:normal;font-variant-numeric:normal;font-variant-east-asian:normal;letter-spacing:0.264583px;word-spacing:0.79375px;fill:#000000;fill-opacity:1;stroke-width:0.264583"
         d="m 68.059557,107.37089 -0.550334,-1.27706 h -2.596446 l -0.550333,1.27706 H 63.769777 L 65.957,102.39672 h 0.500945 l 2.187224,4.97417 z m -2.942168,-1.75684 h 2.187223 L 66.211,103.067 Z" />
      <path
         inkscape:connector-curvature="0"
         id="path5197"
         style="font-style:normal;font-variant:normal;font-weight:normal;font-stretch:normal;font-size:7.05556px;font-family:'Nunito Sans';-inkscape-font-specification:'Nunito Sans Normal';font-variant-ligatures:normal;font-variant-caps:normal;font-variant-numeric:normal;font-variant-east-asian:normal;letter-spacing:0.264583px;word-spacing:0.79375px;fill:#000000;fill-opacity:1;stroke-width:0.264583"
         d="m 73.090612,102.39672 h 0.543278 v 4.97417 h -0.4445 l -2.998613,-4.0005 v 4.0005 h -0.543279 v -4.97417 h 0.444501 l 2.998613,4.0005 z" />
      <path
         inkscape:connector-curvature="0"
         id="path5199"
         style="font-style:normal;font-variant:normal;font-weight:normal;font-stretch:normal;font-size:7.05556px;font-family:'Nunito Sans';-inkscape-font-specification:'Nunito Sans Normal';font-variant-ligatures:normal;font-variant-caps:normal;font-variant-numeric:normal;font-variant-east-asian:normal;letter-spacing:0.264583px;word-spacing:0.79375px;fill:#000000;fill-opacity:1;stroke-width:0.264583"
         d="m 77.061349,107.42733 q -0.973667,0 -1.474612,-0.508 -0.500945,-0.508 -0.500945,-1.49578 v -3.02683 h 0.571501 v 3.07622 q 0,0.72672 0.352778,1.09361 0.359833,0.36689 1.051278,0.36689 0.691445,0 1.044223,-0.36689 0.352778,-0.36689 0.352778,-1.09361 v -3.07622 h 0.578556 v 3.02683 q 0,0.98073 -0.508,1.49578 -0.500945,0.508 -1.467557,0.508 z" />
      <path
         inkscape:connector-curvature="0"
         id="path5201"
         style="font-style:normal;font-variant:normal;font-weight:normal;font-stretch:normal;font-size:7.05556px;font-family:'Nunito Sans';-inkscape-font-specification:'Nunito Sans Normal';font-variant-ligatures:normal;font-variant-caps:normal;font-variant-numeric:normal;font-variant-east-asian:normal;letter-spacing:0.264583px;word-spacing:0.79375px;fill:#000000;fill-opacity:1;stroke-width:0.264583"
         d="m 84.259783,107.37089 -0.550334,-1.27706 h -2.596446 l -0.550334,1.27706 h -0.592667 l 2.187224,-4.97417 h 0.500945 l 2.187223,4.97417 z m -2.942169,-1.75684 h 2.187224 L 82.411226,103.067 Z" />
      <path
         inkscape:connector-curvature="0"
         id="path5203"
         style="font-style:normal;font-variant:normal;font-weight:normal;font-stretch:normal;font-size:7.05556px;font-family:'Nunito Sans';-inkscape-font-specification:'Nunito Sans Normal';font-variant-ligatures:normal;font-variant-caps:normal;font-variant-numeric:normal;font-variant-east-asian:normal;letter-spacing:0.264583px;word-spacing:0.79375px;fill:#000000;fill-opacity:1;stroke-width:0.264583"
         d="m 85.847724,107.37089 v -4.97417 h 0.578556 v 4.48028 h 2.490613 v 0.49389 z" />
    </g>
    <g
       style="font-style:normal;font-variant:normal;font-weight:normal;font-stretch:normal;font-size:5.64444px;line-height:1.25;font-family:'Nunito Sans';-inkscape-font-specification:'Nunito Sans Normal';font-variant-ligatures:normal;font-variant-caps:normal;font-variant-numeric:normal;font-variant-east-asian:normal;letter-spacing:0px;word-spacing:0px;display:inline;fill:#000000;fill-opacity:1;stroke:none;stroke-width:0.264583"
       id="text5081"
       aria-label="Handbook Edition">
      <path
         inkscape:connector-curvature="0"
         id="path5148"
         style="font-style:normal;font-variant:normal;font-weight:normal;font-stretch:normal;font-size:5.64444px;font-family:'Nunito Sans';-inkscape-font-specification:'Nunito Sans Normal';font-variant-ligatures:normal;font-variant-caps:normal;font-variant-numeric:normal;font-variant-east-asian:normal;fill:#000000;fill-opacity:1;stroke-width:0.264583"
         d="m 36.274598,124.14582 h 0.457199 v 3.97933 H 36.274598 V 126.302 h -2.381954 v 1.82315 h -0.4572 v -3.97933 h 0.4572 v 1.76107 h 2.381954 z" />
      <path
         inkscape:connector-curvature="0"
         id="path5150"
         style="font-style:normal;font-variant:normal;font-weight:normal;font-stretch:normal;font-size:5.64444px;font-family:'Nunito Sans';-inkscape-font-specification:'Nunito Sans Normal';font-variant-ligatures:normal;font-variant-caps:normal;font-variant-numeric:normal;font-variant-east-asian:normal;fill:#000000;fill-opacity:1;stroke-width:0.264583"
         d="m 38.762737,125.30858 q 0.524933,0 0.778933,0.27093 0.259644,0.26529 0.259644,0.8128 v 1.73284 h -0.445911 v -0.46849 q -0.107244,0.24271 -0.327377,0.37818 -0.220133,0.12982 -0.508,0.12982 -0.265288,0 -0.491066,-0.10724 -0.220133,-0.10725 -0.349955,-0.29916 -0.129822,-0.19191 -0.129822,-0.42333 0,-0.31044 0.158044,-0.47978 0.158044,-0.17497 0.519288,-0.24835 0.361245,-0.079 1.004711,-0.079 h 0.124177 v -0.18627 q 0,-0.34431 -0.141111,-0.49671 -0.141111,-0.15805 -0.457199,-0.15805 -0.474133,0 -0.942622,0.29352 l -0.1524,-0.33303 q 0.214489,-0.1524 0.513644,-0.24271 0.3048,-0.0959 0.587022,-0.0959 z m -0.180622,2.49484 q 0.338667,0 0.553155,-0.22578 0.220133,-0.23142 0.220133,-0.59266 v -0.16369 h -0.101599 q -0.496711,0 -0.756355,0.0451 -0.259645,0.0395 -0.372533,0.14111 -0.107245,0.096 -0.107245,0.28787 0,0.22013 0.158044,0.36689 0.163689,0.14111 0.4064,0.14111 z" />
      <path
         inkscape:connector-curvature="0"
         id="path5152"
         style="font-style:normal;font-variant:normal;font-weight:normal;font-stretch:normal;font-size:5.64444px;font-family:'Nunito Sans';-inkscape-font-specification:'Nunito Sans Normal';font-variant-ligatures:normal;font-variant-caps:normal;font-variant-numeric:normal;font-variant-east-asian:normal;fill:#000000;fill-opacity:1;stroke-width:0.264583"
         d="m 42.015611,125.30858 q 0.987777,0 0.987777,1.08937 v 1.7272 h -0.4572 v -1.69897 q 0,-0.38383 -0.1524,-0.5588 -0.146755,-0.17498 -0.474133,-0.17498 -0.378177,0 -0.603955,0.23142 -0.225778,0.23142 -0.225778,0.62653 v 1.5748 h -0.457199 v -2.74884 h 0.451555 v 0.45156 q 0.135466,-0.254 0.378177,-0.38383 0.242711,-0.13546 0.553156,-0.13546 z" />
      <path
         inkscape:connector-curvature="0"
         id="path5154"
         style="font-style:normal;font-variant:normal;font-weight:normal;font-stretch:normal;font-size:5.64444px;font-family:'Nunito Sans';-inkscape-font-specification:'Nunito Sans Normal';font-variant-ligatures:normal;font-variant-caps:normal;font-variant-numeric:normal;font-variant-east-asian:normal;fill:#000000;fill-opacity:1;stroke-width:0.264583"
         d="m 46.279192,124.14582 v 3.97933 h -0.4572 v -0.50235 q -0.124178,0.25964 -0.366889,0.40075 -0.237066,0.14111 -0.558799,0.14111 -0.361244,0 -0.637822,-0.18062 -0.276578,-0.18062 -0.428977,-0.50235 -0.1524,-0.32738 -0.1524,-0.75636 0,-0.42333 0.1524,-0.74506 0.152399,-0.32174 0.428977,-0.49672 0.276578,-0.17497 0.637822,-0.17497 0.321733,0 0.558799,0.14111 0.242711,0.14111 0.366889,0.40075 v -1.70462 z m -1.292577,3.64067 q 0.400755,0 0.615244,-0.27094 0.220133,-0.27657 0.220133,-0.77893 0,-0.50235 -0.220133,-0.77329 -0.214489,-0.27093 -0.615244,-0.27093 -0.400755,0 -0.626533,0.27093 -0.220133,0.27094 -0.220133,0.762 0,0.50236 0.220133,0.78458 0.225778,0.27658 0.626533,0.27658 z" />
      <path
         inkscape:connector-curvature="0"
         id="path5156"
         style="font-style:normal;font-variant:normal;font-weight:normal;font-stretch:normal;font-size:5.64444px;font-family:'Nunito Sans';-inkscape-font-specification:'Nunito Sans Normal';font-variant-ligatures:normal;font-variant-caps:normal;font-variant-numeric:normal;font-variant-east-asian:normal;fill:#000000;fill-opacity:1;stroke-width:0.264583"
         d="m 48.508921,125.30858 q 0.361245,0 0.637822,0.17497 0.276578,0.17498 0.428978,0.49672 0.1524,0.32173 0.1524,0.74506 0,0.42898 -0.1524,0.75636 -0.1524,0.32173 -0.428978,0.50235 -0.276577,0.18062 -0.637822,0.18062 -0.321733,0 -0.564444,-0.14111 -0.237066,-0.14111 -0.361244,-0.40075 v 0.50235 h -0.457199 v -3.97933 h 0.457199 v 1.70462 q 0.124178,-0.25964 0.361244,-0.40075 0.242711,-0.14111 0.564444,-0.14111 z m -0.09031,2.47791 q 0.400756,0 0.620889,-0.27658 0.220133,-0.28222 0.220133,-0.78458 0,-0.49106 -0.220133,-0.762 -0.220133,-0.27093 -0.620889,-0.27093 -0.400755,0 -0.620888,0.27093 -0.214489,0.27094 -0.214489,0.77329 0,0.50236 0.214489,0.77893 0.220133,0.27094 0.620888,0.27094 z" />
      <path
         inkscape:connector-curvature="0"
         id="path5158"
         style="font-style:normal;font-variant:normal;font-weight:normal;font-stretch:normal;font-size:5.64444px;font-family:'Nunito Sans';-inkscape-font-specification:'Nunito Sans Normal';font-variant-ligatures:normal;font-variant-caps:normal;font-variant-numeric:normal;font-variant-east-asian:normal;fill:#000000;fill-opacity:1;stroke-width:0.264583"
         d="m 51.551452,128.16466 q -0.389467,0 -0.688622,-0.17497 -0.293511,-0.17498 -0.4572,-0.49671 -0.158044,-0.32738 -0.158044,-0.75636 0,-0.42898 0.158044,-0.75071 0.163689,-0.32738 0.4572,-0.50236 0.299155,-0.17497 0.688622,-0.17497 0.389466,0 0.688621,0.17497 0.299156,0.17498 0.4572,0.50236 0.163689,0.32173 0.163689,0.75071 0,0.42898 -0.163689,0.75636 -0.158044,0.32173 -0.4572,0.49671 -0.299155,0.17497 -0.688621,0.17497 z m 0,-0.37817 q 0.406399,0 0.620888,-0.26529 0.220133,-0.27094 0.220133,-0.78458 0,-0.50235 -0.220133,-0.77329 -0.220133,-0.27658 -0.620888,-0.27658 -0.400756,0 -0.620889,0.27658 -0.220133,0.27094 -0.220133,0.77329 0,0.508 0.214489,0.77893 0.220133,0.27094 0.626533,0.27094 z" />
      <path
         inkscape:connector-curvature="0"
         id="path5160"
         style="font-style:normal;font-variant:normal;font-weight:normal;font-stretch:normal;font-size:5.64444px;font-family:'Nunito Sans';-inkscape-font-specification:'Nunito Sans Normal';font-variant-ligatures:normal;font-variant-caps:normal;font-variant-numeric:normal;font-variant-east-asian:normal;fill:#000000;fill-opacity:1;stroke-width:0.264583"
         d="m 54.682351,128.16466 q -0.389466,0 -0.688622,-0.17497 -0.29351,-0.17498 -0.457199,-0.49671 -0.158045,-0.32738 -0.158045,-0.75636 0,-0.42898 0.158045,-0.75071 0.163689,-0.32738 0.457199,-0.50236 0.299156,-0.17497 0.688622,-0.17497 0.389466,0 0.688622,0.17497 0.299155,0.17498 0.457199,0.50236 0.163689,0.32173 0.163689,0.75071 0,0.42898 -0.163689,0.75636 -0.158044,0.32173 -0.457199,0.49671 -0.299156,0.17497 -0.688622,0.17497 z m 0,-0.37817 q 0.4064,0 0.620889,-0.26529 0.220133,-0.27094 0.220133,-0.78458 0,-0.50235 -0.220133,-0.77329 -0.220134,-0.27658 -0.620889,-0.27658 -0.400755,0 -0.620888,0.27658 -0.220133,0.27094 -0.220133,0.77329 0,0.508 0.214488,0.77893 0.220133,0.27094 0.626533,0.27094 z" />
      <path
         inkscape:connector-curvature="0"
         id="path5162"
         style="font-style:normal;font-variant:normal;font-weight:normal;font-stretch:normal;font-size:5.64444px;font-family:'Nunito Sans';-inkscape-font-specification:'Nunito Sans Normal';font-variant-ligatures:normal;font-variant-caps:normal;font-variant-numeric:normal;font-variant-east-asian:normal;fill:#000000;fill-opacity:1;stroke-width:0.264583"
         d="M 59.122763,128.12515 H 58.530096 L 57.130275,126.81 v 1.31515 h -0.457199 v -3.97933 h 0.457199 v 2.47791 l 1.281288,-1.24178 h 0.581377 l -1.365954,1.31516 z" />
      <path
         inkscape:connector-curvature="0"
         id="path5164"
         style="font-style:normal;font-variant:normal;font-weight:normal;font-stretch:normal;font-size:5.64444px;font-family:'Nunito Sans';-inkscape-font-specification:'Nunito Sans Normal';font-variant-ligatures:normal;font-variant-caps:normal;font-variant-numeric:normal;font-variant-east-asian:normal;fill:#000000;fill-opacity:1;stroke-width:0.264583"
         d="m 61.018236,128.12515 v -3.97933 h 2.517421 v 0.38382 h -2.060221 v 1.38289 h 1.947332 v 0.38382 h -1.947332 v 1.44498 h 2.060221 v 0.38382 z" />
      <path
         inkscape:connector-curvature="0"
         id="path5166"
         style="font-style:normal;font-variant:normal;font-weight:normal;font-stretch:normal;font-size:5.64444px;font-family:'Nunito Sans';-inkscape-font-specification:'Nunito Sans Normal';font-variant-ligatures:normal;font-variant-caps:normal;font-variant-numeric:normal;font-variant-east-asian:normal;fill:#000000;fill-opacity:1;stroke-width:0.264583"
         d="m 66.674142,124.14582 v 3.97933 h -0.4572 v -0.50235 q -0.124178,0.25964 -0.366889,0.40075 -0.237066,0.14111 -0.558799,0.14111 -0.361244,0 -0.637822,-0.18062 -0.276578,-0.18062 -0.428978,-0.50235 -0.152399,-0.32738 -0.152399,-0.75636 0,-0.42333 0.152399,-0.74506 0.1524,-0.32174 0.428978,-0.49672 0.276578,-0.17497 0.637822,-0.17497 0.321733,0 0.558799,0.14111 0.242711,0.14111 0.366889,0.40075 v -1.70462 z m -1.292577,3.64067 q 0.400755,0 0.615244,-0.27094 0.220133,-0.27657 0.220133,-0.77893 0,-0.50235 -0.220133,-0.77329 -0.214489,-0.27093 -0.615244,-0.27093 -0.400756,0 -0.626533,0.27093 -0.220133,0.27094 -0.220133,0.762 0,0.50236 0.220133,0.78458 0.225777,0.27658 0.626533,0.27658 z" />
      <path
         inkscape:connector-curvature="0"
         id="path5168"
         style="font-style:normal;font-variant:normal;font-weight:normal;font-stretch:normal;font-size:5.64444px;font-family:'Nunito Sans';-inkscape-font-specification:'Nunito Sans Normal';font-variant-ligatures:normal;font-variant-caps:normal;font-variant-numeric:normal;font-variant-east-asian:normal;fill:#000000;fill-opacity:1;stroke-width:0.264583"
         d="m 67.520985,128.12515 v -2.74884 h 0.4572 v 2.74884 z m -0.04515,-3.93982 h 0.553155 v 0.51365 h -0.55316 z" />
      <path
         inkscape:connector-curvature="0"
         id="path5170"
         style="font-style:normal;font-variant:normal;font-weight:normal;font-stretch:normal;font-size:5.64444px;font-family:'Nunito Sans';-inkscape-font-specification:'Nunito Sans Normal';font-variant-ligatures:normal;font-variant-caps:normal;font-variant-numeric:normal;font-variant-east-asian:normal;fill:#000000;fill-opacity:1;stroke-width:0.264583"
         d="m 70.040785,127.79778 q 0.124178,0 0.248356,-0.0169 l -0.02258,0.36125 q -0.129822,0.0226 -0.282222,0.0226 -0.496711,0 -0.750711,-0.25964 -0.248355,-0.25964 -0.248355,-0.72249 v -1.44498 h -0.536222 v -0.36124 h 0.536222 V 124.541 h 0.4572 v 0.83538 h 0.778932 v 0.36124 h -0.778932 v 1.41111 q 0,0.64912 0.59831,0.64912 z" />
      <path
         inkscape:connector-curvature="0"
         id="path5172"
         style="font-style:normal;font-variant:normal;font-weight:normal;font-stretch:normal;font-size:5.64444px;font-family:'Nunito Sans';-inkscape-font-specification:'Nunito Sans Normal';font-variant-ligatures:normal;font-variant-caps:normal;font-variant-numeric:normal;font-variant-east-asian:normal;fill:#000000;fill-opacity:1;stroke-width:0.264583"
         d="m 70.751103,128.12515 v -2.74884 h 0.4572 v 2.74884 z m -0.04515,-3.93982 h 0.553155 v 0.51365 h -0.553155 z" />
      <path
         inkscape:connector-curvature="0"
         id="path5174"
         style="font-style:normal;font-variant:normal;font-weight:normal;font-stretch:normal;font-size:5.64444px;font-family:'Nunito Sans';-inkscape-font-specification:'Nunito Sans Normal';font-variant-ligatures:normal;font-variant-caps:normal;font-variant-numeric:normal;font-variant-east-asian:normal;fill:#000000;fill-opacity:1;stroke-width:0.264583"
         d="m 73.20317,128.16466 q -0.389467,0 -0.688622,-0.17497 -0.293511,-0.17498 -0.4572,-0.49671 -0.158044,-0.32738 -0.158044,-0.75636 0,-0.42898 0.158044,-0.75071 0.163689,-0.32738 0.4572,-0.50236 0.299155,-0.17497 0.688622,-0.17497 0.389466,0 0.688622,0.17497 0.299155,0.17498 0.457199,0.50236 0.163689,0.32173 0.163689,0.75071 0,0.42898 -0.163689,0.75636 -0.158044,0.32173 -0.457199,0.49671 -0.299156,0.17497 -0.688622,0.17497 z m 0,-0.37817 q 0.4064,0 0.620888,-0.26529 0.220133,-0.27094 0.220133,-0.78458 0,-0.50235 -0.220133,-0.77329 -0.220133,-0.27658 -0.620888,-0.27658 -0.400755,0 -0.620889,0.27658 -0.220133,0.27094 -0.220133,0.77329 0,0.508 0.214489,0.77893 0.220133,0.27094 0.626533,0.27094 z" />
      <path
         inkscape:connector-curvature="0"
         id="path5176"
         style="font-style:normal;font-variant:normal;font-weight:normal;font-stretch:normal;font-size:5.64444px;font-family:'Nunito Sans';-inkscape-font-specification:'Nunito Sans Normal';font-variant-ligatures:normal;font-variant-caps:normal;font-variant-numeric:normal;font-variant-east-asian:normal;fill:#000000;fill-opacity:1;stroke-width:0.264583"
         d="m 76.576782,125.30858 q 0.987777,0 0.987777,1.08937 v 1.7272 h -0.4572 v -1.69897 q 0,-0.38383 -0.152399,-0.5588 -0.146756,-0.17498 -0.474133,-0.17498 -0.378178,0 -0.603956,0.23142 -0.225777,0.23142 -0.225777,0.62653 v 1.5748 h -0.4572 v -2.74884 h 0.451555 v 0.45156 q 0.135467,-0.254 0.378178,-0.38383 0.242711,-0.13546 0.553155,-0.13546 z" />
    </g>
    <g
       style="font-style:italic;font-variant:normal;font-weight:normal;font-stretch:normal;font-size:5.64444px;line-height:1.25;font-family:'Gentium Plus';-inkscape-font-specification:'Gentium Plus Italic';font-variant-ligatures:normal;font-variant-caps:normal;font-variant-numeric:normal;font-variant-east-asian:normal;letter-spacing:0px;word-spacing:0px;display:inline;fill:#000000;fill-opacity:1;stroke:none;stroke-width:0.264583"
       id="text5085"
       aria-label="Essential Chants and Vinaya Notes">
      <path
         inkscape:connector-curvature="0"
         id="path5089"
         style="fill:#000000;fill-opacity:1;stroke-width:0.264583"
         d="m 21.614063,136.14481 q -0.05512,0.23978 -0.112999,0.41617 -0.05512,0.17639 -0.08544,0.25631 h -2.160762 l 0.01654,-0.11851 q 0.173633,-0.0386 0.278364,-0.0827 0.104731,-0.0469 0.110243,-0.0854 l 0.402387,-2.89663 q 0.0055,-0.0331 -0.07993,-0.0827 -0.08544,-0.0496 -0.264583,-0.0882 l 0.01654,-0.11851 h 2.031226 l 0.0689,0.0689 q -0.01378,0.0717 -0.03583,0.1571 -0.01929,0.0854 -0.04685,0.17087 -0.02481,0.0854 -0.05237,0.16261 -0.02756,0.0772 -0.05237,0.12954 h -0.118511 q 0.01378,-0.12678 0.01102,-0.20947 -0.0028,-0.0854 -0.02205,-0.13504 -0.01929,-0.0524 -0.05237,-0.0717 -0.03307,-0.0221 -0.08268,-0.0221 h -0.923285 l -0.162608,1.19614 h 1.030772 l 0.05512,0.0772 q -0.02756,0.0386 -0.06339,0.0799 -0.03307,0.0413 -0.07166,0.0827 -0.03583,0.0386 -0.07166,0.0744 -0.03583,0.0331 -0.06339,0.0579 -0.0441,-0.0469 -0.09371,-0.0744 -0.04961,-0.0303 -0.124023,-0.0468 -0.07166,-0.0165 -0.179145,-0.0221 -0.104731,-0.008 -0.259071,-0.008 h -0.190169 l -0.187413,1.3808 q -0.0055,0.0413 0.0083,0.0744 0.01378,0.0303 0.06615,0.0551 0.05236,0.0221 0.151584,0.0358 0.09922,0.011 0.264583,0.011 h 0.333485 q 0.115755,0 0.195681,-0.0138 0.07993,-0.0138 0.143316,-0.0606 0.06615,-0.0496 0.12678,-0.14332 0.06063,-0.0937 0.137803,-0.25631 z" />
      <path
         inkscape:connector-curvature="0"
         id="path5091"
         style="fill:#000000;fill-opacity:1;stroke-width:0.264583"
         d="m 23.791362,134.49116 q -0.05512,0.0634 -0.110243,0.11576 -0.05236,0.0496 -0.09922,0.0882 -0.04685,0.0386 -0.08544,0.0606 -0.03583,0.0193 -0.05512,0.0193 -0.03583,0 -0.07717,-0.0468 -0.03859,-0.0496 -0.09095,-0.10473 -0.04961,-0.0579 -0.118511,-0.10473 -0.06615,-0.0496 -0.157096,-0.0496 -0.07717,0 -0.151584,0.0303 -0.07441,0.0276 -0.135048,0.0799 -0.05788,0.0496 -0.09646,0.12402 -0.03583,0.0717 -0.03583,0.15985 0,0.0965 0.09095,0.20395 0.09371,0.10749 0.316948,0.20947 0.112999,0.0524 0.225998,0.12126 0.112999,0.0689 0.201194,0.15986 0.09095,0.0882 0.146072,0.20394 0.05788,0.113 0.05788,0.25908 0,0.19016 -0.09922,0.35829 -0.09646,0.16536 -0.250803,0.28938 -0.151584,0.12127 -0.338997,0.19017 -0.187413,0.0717 -0.366558,0.0717 -0.129536,0 -0.256315,-0.0386 -0.126779,-0.0358 -0.225998,-0.0937 -0.09922,-0.0579 -0.162609,-0.12402 -0.06063,-0.0689 -0.06063,-0.12678 0,-0.0303 0.03307,-0.0882 0.03307,-0.0579 0.07717,-0.113 0.04685,-0.0579 0.09371,-0.0992 0.04685,-0.0441 0.07717,-0.0441 0.01929,0 0.03859,0.0358 0.02205,0.0331 0.05237,0.0854 0.03307,0.0496 0.07717,0.11025 0.0441,0.0606 0.110243,0.113 0.06615,0.0496 0.15434,0.0854 0.09095,0.0331 0.212218,0.0331 0.09646,0 0.181901,-0.0358 0.08819,-0.0386 0.151584,-0.0992 0.06615,-0.0634 0.101975,-0.14607 0.03859,-0.0854 0.03859,-0.1819 0,-0.10749 -0.0441,-0.19293 -0.0441,-0.0882 -0.118511,-0.15709 -0.07166,-0.0717 -0.16812,-0.12954 -0.09646,-0.0579 -0.201194,-0.10749 -0.146072,-0.0689 -0.24529,-0.1378 -0.09922,-0.0689 -0.159853,-0.14056 -0.06063,-0.0717 -0.08819,-0.15158 -0.02481,-0.0799 -0.02481,-0.16813 0,-0.17363 0.08544,-0.31694 0.08544,-0.14332 0.220486,-0.24529 0.135047,-0.10474 0.300412,-0.15986 0.16812,-0.0579 0.330729,-0.0579 0.140559,0 0.237022,0.0331 0.09646,0.0331 0.16812,0.0772 0.07441,0.0441 0.129536,0.0854 0.05512,0.0413 0.112999,0.0579 z" />
      <path
         inkscape:connector-curvature="0"
         id="path5093"
         style="fill:#000000;fill-opacity:1;stroke-width:0.264583"
         d="m 25.753687,134.49116 q -0.05512,0.0634 -0.110243,0.11576 -0.05237,0.0496 -0.09922,0.0882 -0.04685,0.0386 -0.08544,0.0606 -0.03583,0.0193 -0.05512,0.0193 -0.03583,0 -0.07717,-0.0468 -0.03859,-0.0496 -0.09095,-0.10473 -0.04961,-0.0579 -0.118511,-0.10473 -0.06615,-0.0496 -0.157097,-0.0496 -0.07717,0 -0.151584,0.0303 -0.07441,0.0276 -0.135047,0.0799 -0.05788,0.0496 -0.09646,0.12402 -0.03583,0.0717 -0.03583,0.15985 0,0.0965 0.09095,0.20395 0.09371,0.10749 0.316948,0.20947 0.112999,0.0524 0.225998,0.12126 0.112999,0.0689 0.201194,0.15986 0.09095,0.0882 0.146072,0.20394 0.05788,0.113 0.05788,0.25908 0,0.19016 -0.09922,0.35829 -0.09646,0.16536 -0.250803,0.28938 -0.151584,0.12127 -0.338997,0.19017 -0.187413,0.0717 -0.366558,0.0717 -0.129536,0 -0.256315,-0.0386 -0.12678,-0.0358 -0.225998,-0.0937 -0.09922,-0.0579 -0.162609,-0.12402 -0.06063,-0.0689 -0.06063,-0.12678 0,-0.0303 0.03307,-0.0882 0.03307,-0.0579 0.07717,-0.113 0.04685,-0.0579 0.09371,-0.0992 0.04685,-0.0441 0.07717,-0.0441 0.01929,0 0.03859,0.0358 0.02205,0.0331 0.05237,0.0854 0.03307,0.0496 0.07717,0.11025 0.0441,0.0606 0.110243,0.113 0.06615,0.0496 0.15434,0.0854 0.09095,0.0331 0.212218,0.0331 0.09646,0 0.181901,-0.0358 0.08819,-0.0386 0.151584,-0.0992 0.06615,-0.0634 0.101974,-0.14607 0.03858,-0.0854 0.03858,-0.1819 0,-0.10749 -0.0441,-0.19293 -0.0441,-0.0882 -0.118511,-0.15709 -0.07166,-0.0717 -0.16812,-0.12954 -0.09646,-0.0579 -0.201194,-0.10749 -0.146072,-0.0689 -0.245291,-0.1378 -0.09922,-0.0689 -0.159852,-0.14056 -0.06063,-0.0717 -0.08819,-0.15158 -0.02481,-0.0799 -0.02481,-0.16813 0,-0.17363 0.08544,-0.31694 0.08544,-0.14332 0.220486,-0.24529 0.135048,-0.10474 0.300412,-0.15986 0.168121,-0.0579 0.330729,-0.0579 0.14056,0 0.237023,0.0331 0.09646,0.0331 0.16812,0.0772 0.07441,0.0441 0.129536,0.0854 0.05512,0.0413 0.112999,0.0579 z" />
      <path
         inkscape:connector-curvature="0"
         id="path5095"
         style="fill:#000000;fill-opacity:1;stroke-width:0.264583"
         d="m 26.869897,134.66204 q -0.09095,0.0827 -0.179145,0.20119 -0.08544,0.11852 -0.157096,0.25632 -0.0689,0.1378 -0.115756,0.28939 -0.04685,0.14883 -0.05788,0.2949 0.361046,-0.14056 0.570507,-0.25356 0.212218,-0.11576 0.319705,-0.21773 0.107487,-0.10198 0.137804,-0.19568 0.03032,-0.0937 0.03032,-0.19017 0,-0.0854 -0.02205,-0.14607 -0.02205,-0.0634 -0.05788,-0.0992 -0.03583,-0.0386 -0.08268,-0.0551 -0.0441,-0.0193 -0.09095,-0.0193 -0.0441,0 -0.129536,0.0331 -0.08544,0.0303 -0.165364,0.10197 z m 0.98943,0.0606 q 0,0.0772 -0.01929,0.16261 -0.01654,0.0854 -0.07441,0.17639 -0.05512,0.091 -0.157096,0.19017 -0.09922,0.0992 -0.26734,0.20671 -0.165364,0.10473 -0.405143,0.22048 -0.239778,0.113 -0.573263,0.23702 0.01654,0.15435 0.06339,0.28112 0.04961,0.12678 0.112999,0.21773 0.06615,0.091 0.14056,0.14332 0.07717,0.0496 0.151584,0.0496 0.05788,0 0.140559,-0.011 0.08268,-0.0138 0.19017,-0.0551 0.110243,-0.0413 0.24529,-0.12126 0.137804,-0.0799 0.303168,-0.21222 0.03032,0.0165 0.05237,0.0551 0.0248,0.0358 0.03307,0.0579 -0.225998,0.19568 -0.399631,0.31695 -0.173633,0.11851 -0.311437,0.1819 -0.135047,0.0661 -0.24529,0.0882 -0.107487,0.0221 -0.206706,0.0221 -0.09095,0 -0.206705,-0.0524 -0.115755,-0.0496 -0.21773,-0.15985 -0.101975,-0.113 -0.173633,-0.29214 -0.0689,-0.1819 -0.0689,-0.44373 0,-0.21497 0.05237,-0.42168 0.05236,-0.20946 0.148828,-0.39963 0.09922,-0.19292 0.242534,-0.3638 0.143316,-0.17088 0.325217,-0.31144 0.06339,-0.0496 0.143316,-0.0937 0.07993,-0.0469 0.165364,-0.0799 0.08819,-0.0358 0.176389,-0.0551 0.09095,-0.0193 0.176389,-0.0193 0.118511,0 0.203949,0.0441 0.08819,0.0413 0.146072,0.11025 0.05788,0.0689 0.08544,0.15709 0.02756,0.0854 0.02756,0.17363 z" />
      <path
         inkscape:connector-curvature="0"
         id="path5097"
         style="fill:#000000;fill-opacity:1;stroke-width:0.264583"
         d="m 30.689816,136.61885 q -0.250803,0.14883 -0.427191,0.22876 -0.173633,0.0827 -0.278364,0.0827 -0.09646,0 -0.151584,-0.0882 -0.05237,-0.0854 -0.05237,-0.23427 0,-0.0496 0.01654,-0.17639 0.01929,-0.12953 0.04685,-0.30041 0.02756,-0.17088 0.06063,-0.3638 0.03307,-0.19293 0.06063,-0.36656 0.02756,-0.17363 0.0441,-0.31144 0.01929,-0.1378 0.01929,-0.20119 0,-0.20946 -0.0441,-0.29214 -0.0441,-0.0827 -0.165364,-0.0827 -0.03583,0 -0.12678,0.0441 -0.08819,0.0441 -0.201193,0.13229 -0.112999,0.0882 -0.237023,0.22049 -0.121267,0.13229 -0.223242,0.30868 -0.07717,0.13229 -0.126779,0.31695 -0.04685,0.18465 -0.09371,0.45199 -0.0441,0.24529 -0.05788,0.42168 -0.01102,0.17639 -0.0055,0.339 -0.03583,0.0193 -0.09095,0.0441 -0.05237,0.0221 -0.110243,0.0469 -0.05512,0.0248 -0.107487,0.0469 -0.05237,0.0248 -0.08544,0.0441 l -0.09095,-0.0854 q 0.03859,-0.1819 0.07441,-0.39412 0.03859,-0.21221 0.07166,-0.42443 0.03583,-0.21498 0.06615,-0.42168 0.03032,-0.20946 0.05237,-0.3831 0.02205,-0.17638 0.03307,-0.30868 0.01378,-0.13229 0.01378,-0.19568 0,-0.0634 -0.0083,-0.0992 -0.0055,-0.0386 -0.01929,-0.0551 -0.01102,-0.0193 -0.03032,-0.0248 -0.01929,-0.006 -0.0441,-0.006 -0.0248,0 -0.07441,0.011 -0.04685,0.011 -0.09646,0.0248 -0.05788,0.0165 -0.124024,0.0358 l -0.03859,-0.10748 q 0.115755,-0.0496 0.231511,-0.0965 0.118511,-0.0468 0.220486,-0.0827 0.101974,-0.0358 0.176388,-0.0579 0.07717,-0.022 0.110243,-0.022 0.03859,0 0.06063,0.0138 0.02205,0.011 0.03032,0.0441 0.01102,0.0331 0.01378,0.0937 0.0028,0.0606 0.0028,0.15985 0,0.0303 -0.0028,0.0827 -0.0028,0.0524 -0.0083,0.113 -0.0028,0.0579 -0.0083,0.11576 -0.0055,0.0551 -0.0083,0.0882 0.148828,-0.18741 0.300412,-0.32246 0.151585,-0.13505 0.297657,-0.22048 0.146071,-0.0882 0.281119,-0.12678 0.137804,-0.0413 0.261827,-0.0413 0.08544,0 0.151584,0.0248 0.0689,0.0248 0.112999,0.0827 0.0441,0.0551 0.06615,0.14883 0.02481,0.0909 0.02481,0.22324 0,0.0965 -0.01929,0.23978 -0.01654,0.14332 -0.0441,0.31144 -0.02756,0.16536 -0.06063,0.34175 -0.03307,0.17639 -0.06063,0.33624 -0.02756,0.15985 -0.04685,0.29215 -0.01654,0.12953 -0.01654,0.2067 0,0.0937 0.02481,0.12954 0.0248,0.0331 0.07441,0.0331 0.06339,0 0.146072,-0.0221 0.08268,-0.0221 0.198437,-0.0689 z" />
      <path
         inkscape:connector-curvature="0"
         id="path5099"
         style="fill:#000000;fill-opacity:1;stroke-width:0.264583"
         d="m 32.395825,136.49483 q -0.135047,0.10473 -0.270095,0.18741 -0.135048,0.0799 -0.256315,0.13505 -0.121267,0.0551 -0.220486,0.0827 -0.09646,0.0303 -0.157096,0.0303 -0.0689,0 -0.132292,-0.0413 -0.06063,-0.0413 -0.110243,-0.113 -0.04685,-0.0744 -0.07441,-0.17639 -0.02756,-0.10197 -0.02756,-0.22324 0,-0.0524 0.0028,-0.10473 0.0028,-0.0524 0.0055,-0.10749 0.0055,-0.0579 0.01102,-0.12127 0.0083,-0.0634 0.01929,-0.14056 l 0.212217,-1.33118 h -0.396874 l -0.04134,-0.0854 0.278363,-0.16261 h 0.198437 l 0.01654,-0.0965 q 0.01654,-0.113 0.03307,-0.18741 0.01929,-0.0744 0.04134,-0.12402 0.02481,-0.0496 0.05237,-0.0799 0.02756,-0.0331 0.06339,-0.0606 l 0.278364,-0.19844 0.07717,0.0689 q -0.01929,0.0248 -0.04134,0.0882 -0.01929,0.0551 -0.04685,0.1571 -0.0248,0.10198 -0.05236,0.27285 l -0.02481,0.15985 h 0.686263 l 0.05512,0.0772 q -0.02756,0.0386 -0.07717,0.0854 -0.04685,0.0441 -0.09922,0.0854 -0.05237,0.0413 -0.101974,0.0772 -0.04685,0.0331 -0.07166,0.0469 -0.01654,-0.0386 -0.04685,-0.0606 -0.02756,-0.0248 -0.07717,-0.0386 -0.04961,-0.0138 -0.124023,-0.0193 -0.07166,-0.006 -0.173633,-0.006 h -0.0083 l -0.195681,1.26504 q -0.0083,0.0524 -0.01654,0.113 -0.0055,0.0579 -0.01102,0.113 -0.0028,0.0524 -0.0055,0.0992 0,0.0469 0,0.0744 0,0.17088 0.06063,0.25356 0.06339,0.0799 0.140559,0.0799 0.09646,0 0.234267,-0.0413 0.14056,-0.0413 0.347265,-0.13504 z" />
      <path
         inkscape:connector-curvature="0"
         id="path5101"
         style="fill:#000000;fill-opacity:1;stroke-width:0.264583"
         d="m 33.782131,136.61885 q -0.129536,0.0772 -0.234266,0.13505 -0.101975,0.0579 -0.187413,0.0965 -0.08544,0.0413 -0.154341,0.0606 -0.0689,0.0193 -0.129535,0.0193 -0.09371,0 -0.148828,-0.0882 -0.05512,-0.0854 -0.05512,-0.23427 0,-0.0827 0.01929,-0.23427 0.02205,-0.15434 0.05237,-0.33899 0.03032,-0.18742 0.06615,-0.38861 0.03583,-0.20395 0.06615,-0.38585 0.03032,-0.18466 0.04961,-0.32522 0.02205,-0.14331 0.02205,-0.21222 0,-0.0634 -0.0083,-0.0992 -0.0083,-0.0386 -0.02205,-0.0551 -0.01378,-0.0193 -0.03583,-0.0248 -0.02205,-0.006 -0.04685,-0.006 -0.02205,0 -0.0689,0.011 -0.0441,0.008 -0.09095,0.0221 -0.05237,0.0138 -0.115756,0.0331 l -0.03859,-0.10197 q 0.115756,-0.0524 0.228755,-0.0992 0.115755,-0.0496 0.214973,-0.0854 0.09922,-0.0358 0.173633,-0.0579 0.07441,-0.022 0.110243,-0.022 0.07717,0 0.107487,0.0524 0.03307,0.0524 0.03307,0.17915 0,0.0799 -0.02205,0.23702 -0.01929,0.15434 -0.05237,0.34726 -0.03307,0.19293 -0.0689,0.40515 -0.03583,0.20946 -0.0689,0.40238 -0.03307,0.19293 -0.05512,0.35002 -0.01929,0.15435 -0.01929,0.23427 0,0.0854 0.01654,0.12402 0.01929,0.0386 0.06614,0.0386 0.08544,0 0.162609,-0.0221 0.07993,-0.0221 0.192925,-0.0689 z m 0.07441,-3.27972 q 0,0.0772 -0.0248,0.15434 -0.02205,0.0744 -0.06615,0.1378 -0.0441,0.0606 -0.107487,0.0992 -0.06339,0.0386 -0.14056,0.0386 -0.08544,0 -0.132292,-0.0496 -0.04685,-0.0496 -0.04685,-0.14331 0,-0.0744 0.02481,-0.14883 0.0248,-0.0772 0.0689,-0.14056 0.0441,-0.0634 0.10473,-0.10197 0.06339,-0.0413 0.14056,-0.0413 0.08544,0 0.132292,0.0524 0.04685,0.0496 0.04685,0.14332 z" />
      <path
         inkscape:connector-curvature="0"
         id="path5103"
         style="fill:#000000;fill-opacity:1;stroke-width:0.264583"
         d="m 35.579092,135.62942 q 0.01929,-0.12402 0.04134,-0.25631 0.02481,-0.13505 0.04685,-0.25907 0.02481,-0.12403 0.04134,-0.226 0.01929,-0.10473 0.03032,-0.16537 -0.04134,-0.0331 -0.09095,-0.0661 -0.04961,-0.0358 -0.107487,-0.0634 -0.05512,-0.0303 -0.118511,-0.0469 -0.06063,-0.0193 -0.12678,-0.0193 -0.126779,0 -0.239778,0.0634 -0.110243,0.0606 -0.206706,0.16261 -0.09371,0.10198 -0.170876,0.23427 -0.07441,0.12953 -0.12678,0.27009 -0.05237,0.13781 -0.08268,0.27285 -0.02756,0.13505 -0.02756,0.24254 0,0.17914 0.03032,0.32246 0.03032,0.14332 0.08268,0.24529 0.05237,0.10198 0.124024,0.1571 0.07166,0.0551 0.15434,0.0551 0.06615,0 0.159852,-0.0827 0.09646,-0.0854 0.198437,-0.21773 0.104731,-0.13505 0.206706,-0.29766 0.101975,-0.16536 0.181901,-0.32522 z m 0.82131,1.00046 q -0.239778,0.15709 -0.388606,0.22875 -0.146072,0.0717 -0.225999,0.0717 -0.04961,0 -0.09646,-0.0358 -0.0441,-0.0331 -0.07993,-0.12678 -0.03583,-0.0965 -0.05788,-0.26458 -0.01929,-0.16812 -0.01929,-0.43546 -0.07166,0.12678 -0.176389,0.27836 -0.101975,0.14883 -0.220486,0.28112 -0.118511,0.12954 -0.245291,0.21498 -0.124023,0.0882 -0.239778,0.0882 -0.09095,0 -0.195681,-0.0524 -0.101975,-0.0524 -0.19017,-0.16536 -0.08544,-0.11575 -0.143315,-0.2949 -0.05788,-0.1819 -0.05788,-0.44097 0,-0.21773 0.04961,-0.42444 0.05237,-0.20946 0.154341,-0.39963 0.101974,-0.19017 0.248046,-0.35553 0.148828,-0.16812 0.34451,-0.30041 0.07441,-0.0496 0.162608,-0.0965 0.09095,-0.0468 0.184657,-0.0827 0.09646,-0.0358 0.190169,-0.0579 0.09371,-0.022 0.179145,-0.022 0.05788,0 0.112999,0.0165 0.05512,0.0138 0.104731,0.0386 0.05237,0.0248 0.09922,0.0551 0.04685,0.0276 0.08819,0.0551 0.06339,-0.0469 0.135047,-0.0854 0.07166,-0.0413 0.148828,-0.0799 l 0.05512,0.0965 q -0.04685,0.0386 -0.07717,0.0689 -0.03032,0.0303 -0.05512,0.0717 -0.02205,0.0386 -0.03858,0.0965 -0.01654,0.0579 -0.03583,0.15158 -0.04134,0.19844 -0.07993,0.4079 -0.03583,0.20671 -0.06339,0.39137 -0.0248,0.18465 -0.04134,0.32521 -0.01378,0.14056 -0.01378,0.2012 0,0.15709 0.0083,0.26458 0.01102,0.10749 0.02756,0.17363 0.01654,0.0634 0.04134,0.0937 0.02481,0.0276 0.05788,0.0276 0.05512,0 0.129535,-0.0138 0.07717,-0.0165 0.187413,-0.0634 z" />
      <path
         inkscape:connector-curvature="0"
         id="path5105"
         style="fill:#000000;fill-opacity:1;stroke-width:0.264583"
         d="m 37.665439,136.61885 q -0.135047,0.0854 -0.239778,0.14608 -0.101975,0.0579 -0.187413,0.0937 -0.08268,0.0386 -0.15434,0.0551 -0.07166,0.0165 -0.14056,0.0165 -0.07717,0 -0.137804,-0.0827 -0.06063,-0.0827 -0.06063,-0.24529 0,-0.0689 0.01929,-0.23427 0.02205,-0.16536 0.05512,-0.39412 0.03307,-0.22875 0.07441,-0.5016 0.0441,-0.27561 0.08819,-0.56224 0.0441,-0.28663 0.08544,-0.56775 0.0441,-0.28112 0.07717,-0.52366 0.03307,-0.24253 0.05237,-0.42719 0.02205,-0.18741 0.02205,-0.28387 0,-0.0634 -0.01378,-0.0992 -0.01102,-0.0386 -0.03032,-0.0551 -0.01929,-0.0193 -0.04685,-0.0248 -0.02481,-0.006 -0.04961,-0.006 -0.02205,0 -0.07166,0.0138 -0.04685,0.011 -0.09371,0.0248 -0.05512,0.0165 -0.121267,0.0358 l -0.04134,-0.10748 q 0.115755,-0.0524 0.23151,-0.0992 0.118511,-0.0469 0.21773,-0.0827 0.101974,-0.0358 0.179145,-0.0579 0.07717,-0.0221 0.112999,-0.0221 0.07717,0 0.121267,0.0496 0.04685,0.0496 0.04685,0.17639 0,0.10748 -0.02205,0.29765 -0.01929,0.19017 -0.05237,0.43546 -0.03307,0.24254 -0.07717,0.52366 -0.0441,0.27836 -0.08819,0.56499 -0.0441,0.28663 -0.08819,0.565 -0.0441,0.2756 -0.07717,0.51263 -0.03307,0.23702 -0.05512,0.41892 -0.01929,0.17914 -0.01929,0.27285 0,0.0937 0.0248,0.12954 0.02756,0.0331 0.07166,0.0331 0.06339,0 0.146072,-0.0221 0.08544,-0.0221 0.209461,-0.0689 z" />
      <path
         inkscape:connector-curvature="0"
         id="path5107"
         style="fill:#000000;fill-opacity:1;stroke-width:0.264583"
         d="m 41.722382,133.53756 q 0.01102,0.0138 -0.01929,0.0606 -0.03032,0.0469 -0.07993,0.10473 -0.04685,0.0579 -0.101975,0.11575 -0.05237,0.0551 -0.08819,0.0854 l -0.08268,-0.0221 q -0.112999,-0.12402 -0.275607,-0.20395 -0.159853,-0.0827 -0.385851,-0.0827 -0.110243,0 -0.248046,0.0524 -0.137804,0.0524 -0.248047,0.1378 -0.173633,0.13505 -0.297656,0.339 -0.121267,0.20395 -0.198437,0.42994 -0.07717,0.22325 -0.112999,0.44649 -0.03583,0.22048 -0.03583,0.39412 0,0.30041 0.07993,0.52089 0.08268,0.21773 0.209461,0.36105 0.129536,0.14056 0.28112,0.20946 0.15434,0.0661 0.300412,0.0661 0.15434,0 0.369314,-0.0965 0.21773,-0.0992 0.52641,-0.34451 0.01378,0.006 0.02481,0.0248 0.01102,0.0165 0.02205,0.0358 0.01102,0.0193 0.01929,0.0386 0.0083,0.0165 0.01378,0.0248 -0.187413,0.18741 -0.352777,0.31419 -0.162609,0.12678 -0.311437,0.20395 -0.148828,0.0744 -0.283875,0.10473 -0.135048,0.0331 -0.264583,0.0331 -0.206706,0 -0.396875,-0.0882 -0.190169,-0.0909 -0.336241,-0.26183 -0.143316,-0.17087 -0.23151,-0.41892 -0.08544,-0.2508 -0.08544,-0.57051 0,-0.25907 0.04961,-0.52641 0.05236,-0.27009 0.159852,-0.52365 0.107487,-0.25632 0.275607,-0.48507 0.168121,-0.23151 0.399631,-0.41617 0.201194,-0.15709 0.432704,-0.24804 0.234266,-0.091 0.493337,-0.091 0.272852,0 0.465777,0.0799 0.192925,0.0799 0.314192,0.19568 z" />
      <path
         inkscape:connector-curvature="0"
         id="path5109"
         style="fill:#000000;fill-opacity:1;stroke-width:0.264583"
         d="m 44.337895,136.61885 q -0.256315,0.14883 -0.424435,0.22876 -0.165365,0.0827 -0.28112,0.0827 -0.07993,0 -0.143316,-0.0882 -0.06063,-0.0854 -0.06063,-0.23427 0,-0.0496 0.01654,-0.17639 0.01929,-0.12953 0.0441,-0.30041 0.02756,-0.17088 0.05788,-0.3638 0.03032,-0.19293 0.05512,-0.36656 0.02756,-0.17363 0.0441,-0.31144 0.01929,-0.1378 0.01929,-0.20119 0,-0.10473 -0.0083,-0.17363 -0.0083,-0.0717 -0.03032,-0.11576 -0.01929,-0.0441 -0.05788,-0.0606 -0.03583,-0.0193 -0.09646,-0.0193 -0.03583,0 -0.12678,0.0441 -0.09095,0.0413 -0.209461,0.12954 -0.115755,0.0854 -0.242535,0.21497 -0.124023,0.12954 -0.228754,0.30593 -0.07441,0.13229 -0.124023,0.33072 -0.04961,0.19569 -0.08819,0.44373 -0.0248,0.15159 -0.03858,0.26734 -0.01378,0.11576 -0.02205,0.20671 -0.0055,0.0882 -0.0083,0.15985 0,0.0689 0.0055,0.12678 -0.03583,0.0193 -0.09095,0.0441 -0.05237,0.0221 -0.110243,0.0469 -0.05512,0.0248 -0.107487,0.0469 -0.05236,0.0248 -0.08544,0.0441 l -0.09095,-0.0854 q 0.0248,-0.14883 0.06063,-0.36656 0.03859,-0.22048 0.07993,-0.48231 0.0441,-0.26458 0.08819,-0.55673 0.04685,-0.29214 0.09095,-0.58153 0.0441,-0.29214 0.08268,-0.56775 0.04134,-0.27836 0.0689,-0.50987 0.03032,-0.23427 0.04685,-0.4079 0.01929,-0.17639 0.01929,-0.26458 0,-0.0634 -0.01102,-0.0992 -0.0083,-0.0386 -0.02481,-0.0551 -0.01378,-0.0193 -0.03583,-0.0248 -0.01929,-0.006 -0.04134,-0.006 -0.02756,0 -0.07993,0.0138 -0.04961,0.011 -0.104731,0.0248 -0.06339,0.0165 -0.132291,0.0358 l -0.03307,-0.10748 q 0.115755,-0.0524 0.23151,-0.0992 0.118511,-0.0469 0.220486,-0.0827 0.101975,-0.0358 0.179145,-0.0579 0.07717,-0.0221 0.112999,-0.0221 0.07717,0 0.118511,0.0496 0.0441,0.0496 0.0441,0.17639 0,0.0661 -0.01654,0.22048 -0.01654,0.15159 -0.0441,0.35002 -0.0248,0.19844 -0.05788,0.42444 -0.03307,0.226 -0.06615,0.43822 -0.03032,0.20946 -0.05788,0.38585 -0.02756,0.17638 -0.0441,0.2756 0.159853,-0.19843 0.316949,-0.33348 0.157096,-0.13781 0.305924,-0.22049 0.148828,-0.0827 0.283876,-0.11851 0.137803,-0.0386 0.261827,-0.0386 0.173633,0 0.248047,0.11024 0.07441,0.10749 0.07441,0.37482 0,0.0965 -0.01929,0.23978 -0.01654,0.14332 -0.0441,0.30868 -0.02481,0.16537 -0.05512,0.34176 -0.03032,0.17639 -0.05788,0.33624 -0.02481,0.15709 -0.0441,0.28939 -0.01654,0.12953 -0.01654,0.2067 0,0.0937 0.03307,0.12954 0.03307,0.0331 0.06615,0.0331 0.07717,0 0.159852,-0.0221 0.08268,-0.0248 0.184657,-0.0689 z" />
      <path
         inkscape:connector-curvature="0"
         id="path5111"
         style="fill:#000000;fill-opacity:1;stroke-width:0.264583"
         d="m 46.11832,135.62942 q 0.01929,-0.12402 0.04134,-0.25631 0.02481,-0.13505 0.04685,-0.25907 0.0248,-0.12403 0.04134,-0.226 0.01929,-0.10473 0.03032,-0.16537 -0.04134,-0.0331 -0.09095,-0.0661 -0.04961,-0.0358 -0.107487,-0.0634 -0.05512,-0.0303 -0.118511,-0.0469 -0.06063,-0.0193 -0.126779,-0.0193 -0.12678,0 -0.239779,0.0634 -0.110243,0.0606 -0.206705,0.16261 -0.09371,0.10198 -0.170877,0.23427 -0.07441,0.12953 -0.126779,0.27009 -0.05237,0.13781 -0.08268,0.27285 -0.02756,0.13505 -0.02756,0.24254 0,0.17914 0.03032,0.32246 0.03032,0.14332 0.08268,0.24529 0.05237,0.10198 0.124023,0.1571 0.07166,0.0551 0.15434,0.0551 0.06615,0 0.159853,-0.0827 0.09646,-0.0854 0.198437,-0.21773 0.104731,-0.13505 0.206705,-0.29766 0.101975,-0.16536 0.181901,-0.32522 z m 0.82131,1.00046 q -0.239778,0.15709 -0.388606,0.22875 -0.146072,0.0717 -0.225998,0.0717 -0.04961,0 -0.09646,-0.0358 -0.0441,-0.0331 -0.07993,-0.12678 -0.03583,-0.0965 -0.05788,-0.26458 -0.01929,-0.16812 -0.01929,-0.43546 -0.07166,0.12678 -0.176389,0.27836 -0.101974,0.14883 -0.220486,0.28112 -0.118511,0.12954 -0.24529,0.21498 -0.124024,0.0882 -0.239779,0.0882 -0.09095,0 -0.195681,-0.0524 -0.101975,-0.0524 -0.190169,-0.16536 -0.08544,-0.11575 -0.143316,-0.2949 -0.05788,-0.1819 -0.05788,-0.44097 0,-0.21773 0.04961,-0.42444 0.05237,-0.20946 0.15434,-0.39963 0.101975,-0.19017 0.248047,-0.35553 0.148828,-0.16812 0.344509,-0.30041 0.07441,-0.0496 0.162608,-0.0965 0.09095,-0.0468 0.184657,-0.0827 0.09646,-0.0358 0.190169,-0.0579 0.09371,-0.022 0.179145,-0.022 0.05788,0 0.112999,0.0165 0.05512,0.0138 0.104731,0.0386 0.05237,0.0248 0.09922,0.0551 0.04685,0.0276 0.08819,0.0551 0.06339,-0.0469 0.135048,-0.0854 0.07166,-0.0413 0.148828,-0.0799 l 0.05512,0.0965 q -0.04685,0.0386 -0.07717,0.0689 -0.03032,0.0303 -0.05512,0.0717 -0.02205,0.0386 -0.03858,0.0965 -0.01654,0.0579 -0.03583,0.15158 -0.04134,0.19844 -0.07993,0.4079 -0.03583,0.20671 -0.06339,0.39137 -0.02481,0.18465 -0.04134,0.32521 -0.01378,0.14056 -0.01378,0.2012 0,0.15709 0.0083,0.26458 0.01102,0.10749 0.02756,0.17363 0.01654,0.0634 0.04134,0.0937 0.02481,0.0276 0.05788,0.0276 0.05512,0 0.129536,-0.0138 0.07717,-0.0165 0.187413,-0.0634 z" />
      <path
         inkscape:connector-curvature="0"
         id="path5113"
         style="fill:#000000;fill-opacity:1;stroke-width:0.264583"
         d="m 49.68468,136.61885 q -0.250803,0.14883 -0.427192,0.22876 -0.173633,0.0827 -0.278363,0.0827 -0.09646,0 -0.151584,-0.0882 -0.05237,-0.0854 -0.05237,-0.23427 0,-0.0496 0.01654,-0.17639 0.01929,-0.12953 0.04685,-0.30041 0.02756,-0.17088 0.06063,-0.3638 0.03307,-0.19293 0.06063,-0.36656 0.02756,-0.17363 0.0441,-0.31144 0.01929,-0.1378 0.01929,-0.20119 0,-0.20946 -0.0441,-0.29214 -0.0441,-0.0827 -0.165365,-0.0827 -0.03583,0 -0.126779,0.0441 -0.0882,0.0441 -0.201194,0.13229 -0.112999,0.0882 -0.237022,0.22049 -0.121267,0.13229 -0.223242,0.30868 -0.07717,0.13229 -0.12678,0.31695 -0.04685,0.18465 -0.09371,0.45199 -0.0441,0.24529 -0.05788,0.42168 -0.01102,0.17639 -0.0055,0.339 -0.03583,0.0193 -0.09095,0.0441 -0.05237,0.0221 -0.110243,0.0469 -0.05512,0.0248 -0.107487,0.0469 -0.05236,0.0248 -0.08544,0.0441 l -0.09095,-0.0854 q 0.03859,-0.1819 0.07441,-0.39412 0.03858,-0.21221 0.07166,-0.42443 0.03583,-0.21498 0.06615,-0.42168 0.03032,-0.20946 0.05237,-0.3831 0.02205,-0.17638 0.03307,-0.30868 0.01378,-0.13229 0.01378,-0.19568 0,-0.0634 -0.0083,-0.0992 -0.0055,-0.0386 -0.01929,-0.0551 -0.01102,-0.0193 -0.03032,-0.0248 -0.01929,-0.006 -0.0441,-0.006 -0.02481,0 -0.07441,0.011 -0.04685,0.011 -0.09646,0.0248 -0.05788,0.0165 -0.124023,0.0358 l -0.03858,-0.10748 q 0.115755,-0.0496 0.23151,-0.0965 0.118511,-0.0468 0.220486,-0.0827 0.101975,-0.0358 0.176389,-0.0579 0.07717,-0.022 0.110243,-0.022 0.03858,0 0.06063,0.0138 0.02205,0.011 0.03032,0.0441 0.01102,0.0331 0.01378,0.0937 0.0028,0.0606 0.0028,0.15985 0,0.0303 -0.0028,0.0827 -0.0028,0.0524 -0.0083,0.113 -0.0028,0.0579 -0.0083,0.11576 -0.0055,0.0551 -0.0083,0.0882 0.148828,-0.18741 0.300412,-0.32246 0.151584,-0.13505 0.297656,-0.22048 0.146072,-0.0882 0.28112,-0.12678 0.137803,-0.0413 0.261827,-0.0413 0.08544,0 0.151584,0.0248 0.0689,0.0248 0.112999,0.0827 0.0441,0.0551 0.06615,0.14883 0.0248,0.0909 0.0248,0.22324 0,0.0965 -0.01929,0.23978 -0.01654,0.14332 -0.0441,0.31144 -0.02756,0.16536 -0.06063,0.34175 -0.03307,0.17639 -0.06063,0.33624 -0.02756,0.15985 -0.04685,0.29215 -0.01654,0.12953 -0.01654,0.2067 0,0.0937 0.0248,0.12954 0.02481,0.0331 0.07441,0.0331 0.06339,0 0.146072,-0.0221 0.08268,-0.0221 0.198438,-0.0689 z" />
      <path
         inkscape:connector-curvature="0"
         id="path5115"
         style="fill:#000000;fill-opacity:1;stroke-width:0.264583"
         d="m 51.390691,136.49483 q -0.135048,0.10473 -0.270096,0.18741 -0.135047,0.0799 -0.256314,0.13505 -0.121268,0.0551 -0.220486,0.0827 -0.09646,0.0303 -0.157097,0.0303 -0.0689,0 -0.132291,-0.0413 -0.06063,-0.0413 -0.110243,-0.113 -0.04685,-0.0744 -0.07441,-0.17639 -0.02756,-0.10197 -0.02756,-0.22324 0,-0.0524 0.0028,-0.10473 0.0028,-0.0524 0.0055,-0.10749 0.0055,-0.0579 0.01102,-0.12127 0.0083,-0.0634 0.01929,-0.14056 l 0.212218,-1.33118 h -0.396875 l -0.04134,-0.0854 0.278364,-0.16261 h 0.198437 l 0.01654,-0.0965 q 0.01654,-0.113 0.03307,-0.18741 0.01929,-0.0744 0.04134,-0.12402 0.02481,-0.0496 0.05237,-0.0799 0.02756,-0.0331 0.06339,-0.0606 l 0.278364,-0.19844 0.07717,0.0689 q -0.01929,0.0248 -0.04134,0.0882 -0.01929,0.0551 -0.04685,0.1571 -0.02481,0.10198 -0.05237,0.27285 l -0.0248,0.15985 h 0.686262 l 0.05512,0.0772 q -0.02756,0.0386 -0.07717,0.0854 -0.04685,0.0441 -0.09922,0.0854 -0.05237,0.0413 -0.101975,0.0772 -0.04685,0.0331 -0.07166,0.0469 -0.01654,-0.0386 -0.04685,-0.0606 -0.02756,-0.0248 -0.07717,-0.0386 -0.04961,-0.0138 -0.124024,-0.0193 -0.07166,-0.006 -0.173632,-0.006 h -0.0083 l -0.195682,1.26504 q -0.0083,0.0524 -0.01654,0.113 -0.0055,0.0579 -0.01102,0.113 -0.0028,0.0524 -0.0055,0.0992 0,0.0469 0,0.0744 0,0.17088 0.06063,0.25356 0.06339,0.0799 0.14056,0.0799 0.09646,0 0.234266,-0.0413 0.14056,-0.0413 0.347265,-0.13504 z" />
      <path
         inkscape:connector-curvature="0"
         id="path5117"
         style="fill:#000000;fill-opacity:1;stroke-width:0.264583"
         d="m 53.44672,134.49116 q -0.05512,0.0634 -0.110243,0.11576 -0.05237,0.0496 -0.09922,0.0882 -0.04685,0.0386 -0.08544,0.0606 -0.03583,0.0193 -0.05512,0.0193 -0.03583,0 -0.07717,-0.0468 -0.03858,-0.0496 -0.09095,-0.10473 -0.04961,-0.0579 -0.118512,-0.10473 -0.06614,-0.0496 -0.157096,-0.0496 -0.07717,0 -0.151584,0.0303 -0.07441,0.0276 -0.135048,0.0799 -0.05788,0.0496 -0.09646,0.12402 -0.03583,0.0717 -0.03583,0.15985 0,0.0965 0.09095,0.20395 0.09371,0.10749 0.316949,0.20947 0.112999,0.0524 0.225998,0.12126 0.112999,0.0689 0.201193,0.15986 0.09095,0.0882 0.146072,0.20394 0.05788,0.113 0.05788,0.25908 0,0.19016 -0.09922,0.35829 -0.09646,0.16536 -0.250803,0.28938 -0.151584,0.12127 -0.338997,0.19017 -0.187413,0.0717 -0.366558,0.0717 -0.129535,0 -0.256314,-0.0386 -0.12678,-0.0358 -0.225999,-0.0937 -0.09922,-0.0579 -0.162608,-0.12402 -0.06063,-0.0689 -0.06063,-0.12678 0,-0.0303 0.03307,-0.0882 0.03307,-0.0579 0.07717,-0.113 0.04685,-0.0579 0.09371,-0.0992 0.04685,-0.0441 0.07717,-0.0441 0.01929,0 0.03858,0.0358 0.02205,0.0331 0.05237,0.0854 0.03307,0.0496 0.07717,0.11025 0.0441,0.0606 0.110243,0.113 0.06614,0.0496 0.15434,0.0854 0.09095,0.0331 0.212217,0.0331 0.09646,0 0.181901,-0.0358 0.08819,-0.0386 0.151584,-0.0992 0.06615,-0.0634 0.101975,-0.14607 0.03859,-0.0854 0.03859,-0.1819 0,-0.10749 -0.0441,-0.19293 -0.0441,-0.0882 -0.118511,-0.15709 -0.07166,-0.0717 -0.168121,-0.12954 -0.09646,-0.0579 -0.201193,-0.10749 -0.146072,-0.0689 -0.245291,-0.1378 -0.09922,-0.0689 -0.159852,-0.14056 -0.06063,-0.0717 -0.08819,-0.15158 -0.0248,-0.0799 -0.0248,-0.16813 0,-0.17363 0.08544,-0.31694 0.08544,-0.14332 0.220486,-0.24529 0.135048,-0.10474 0.300412,-0.15986 0.168121,-0.0579 0.330729,-0.0579 0.14056,0 0.237023,0.0331 0.09646,0.0331 0.16812,0.0772 0.07441,0.0441 0.129536,0.0854 0.05512,0.0413 0.112999,0.0579 z" />
      <path
         inkscape:connector-curvature="0"
         id="path5119"
         style="fill:#000000;fill-opacity:1;stroke-width:0.264583"
         d="m 56.28272,135.62942 q 0.01929,-0.12402 0.04134,-0.25631 0.0248,-0.13505 0.04685,-0.25907 0.0248,-0.12403 0.04134,-0.226 0.01929,-0.10473 0.03032,-0.16537 -0.04134,-0.0331 -0.09095,-0.0661 -0.04961,-0.0358 -0.107487,-0.0634 -0.05512,-0.0303 -0.118511,-0.0469 -0.06063,-0.0193 -0.126779,-0.0193 -0.12678,0 -0.239779,0.0634 -0.110243,0.0606 -0.206705,0.16261 -0.09371,0.10198 -0.170877,0.23427 -0.07441,0.12953 -0.126779,0.27009 -0.05237,0.13781 -0.08268,0.27285 -0.02756,0.13505 -0.02756,0.24254 0,0.17914 0.03032,0.32246 0.03032,0.14332 0.08268,0.24529 0.05237,0.10198 0.124023,0.1571 0.07166,0.0551 0.15434,0.0551 0.06615,0 0.159853,-0.0827 0.09646,-0.0854 0.198437,-0.21773 0.104731,-0.13505 0.206706,-0.29766 0.101974,-0.16536 0.1819,-0.32522 z m 0.821311,1.00046 q -0.239779,0.15709 -0.388607,0.22875 -0.146072,0.0717 -0.225998,0.0717 -0.04961,0 -0.09646,-0.0358 -0.0441,-0.0331 -0.07993,-0.12678 -0.03583,-0.0965 -0.05788,-0.26458 -0.01929,-0.16812 -0.01929,-0.43546 -0.07166,0.12678 -0.176389,0.27836 -0.101974,0.14883 -0.220486,0.28112 -0.118511,0.12954 -0.24529,0.21498 -0.124023,0.0882 -0.239779,0.0882 -0.09095,0 -0.195681,-0.0524 -0.101975,-0.0524 -0.190169,-0.16536 -0.08544,-0.11575 -0.143316,-0.2949 -0.05788,-0.1819 -0.05788,-0.44097 0,-0.21773 0.04961,-0.42444 0.05237,-0.20946 0.15434,-0.39963 0.101975,-0.19017 0.248047,-0.35553 0.148828,-0.16812 0.344509,-0.30041 0.07441,-0.0496 0.162608,-0.0965 0.09095,-0.0468 0.184657,-0.0827 0.09646,-0.0358 0.19017,-0.0579 0.09371,-0.022 0.179144,-0.022 0.05788,0 0.112999,0.0165 0.05512,0.0138 0.104731,0.0386 0.05237,0.0248 0.09922,0.0551 0.04685,0.0276 0.08819,0.0551 0.06339,-0.0469 0.135048,-0.0854 0.07166,-0.0413 0.148828,-0.0799 l 0.05512,0.0965 q -0.04685,0.0386 -0.07717,0.0689 -0.03032,0.0303 -0.05512,0.0717 -0.02205,0.0386 -0.03858,0.0965 -0.01654,0.0579 -0.03583,0.15158 -0.04134,0.19844 -0.07993,0.4079 -0.03583,0.20671 -0.06339,0.39137 -0.02481,0.18465 -0.04134,0.32521 -0.01378,0.14056 -0.01378,0.2012 0,0.15709 0.0083,0.26458 0.01102,0.10749 0.02756,0.17363 0.01654,0.0634 0.04134,0.0937 0.0248,0.0276 0.05788,0.0276 0.05512,0 0.129536,-0.0138 0.07717,-0.0165 0.187413,-0.0634 z" />
      <path
         inkscape:connector-curvature="0"
         id="path5121"
         style="fill:#000000;fill-opacity:1;stroke-width:0.264583"
         d="m 59.849084,136.61885 q -0.250803,0.14883 -0.427192,0.22876 -0.173633,0.0827 -0.278363,0.0827 -0.09646,0 -0.151585,-0.0882 -0.05236,-0.0854 -0.05236,-0.23427 0,-0.0496 0.01654,-0.17639 0.01929,-0.12953 0.04685,-0.30041 0.02756,-0.17088 0.06063,-0.3638 0.03307,-0.19293 0.06063,-0.36656 0.02756,-0.17363 0.0441,-0.31144 0.01929,-0.1378 0.01929,-0.20119 0,-0.20946 -0.0441,-0.29214 -0.0441,-0.0827 -0.165365,-0.0827 -0.03583,0 -0.126779,0.0441 -0.08819,0.0441 -0.201194,0.13229 -0.112999,0.0882 -0.237022,0.22049 -0.121267,0.13229 -0.223242,0.30868 -0.07717,0.13229 -0.12678,0.31695 -0.04685,0.18465 -0.09371,0.45199 -0.0441,0.24529 -0.05788,0.42168 -0.01102,0.17639 -0.0055,0.339 -0.03583,0.0193 -0.09095,0.0441 -0.05237,0.0221 -0.110243,0.0469 -0.05512,0.0248 -0.107487,0.0469 -0.05237,0.0248 -0.08544,0.0441 l -0.09095,-0.0854 q 0.03858,-0.1819 0.07441,-0.39412 0.03858,-0.21221 0.07166,-0.42443 0.03583,-0.21498 0.06615,-0.42168 0.03032,-0.20946 0.05236,-0.3831 0.02205,-0.17638 0.03307,-0.30868 0.01378,-0.13229 0.01378,-0.19568 0,-0.0634 -0.0083,-0.0992 -0.0055,-0.0386 -0.01929,-0.0551 -0.01103,-0.0193 -0.03032,-0.0248 -0.01929,-0.006 -0.0441,-0.006 -0.02481,0 -0.07441,0.011 -0.04685,0.011 -0.09646,0.0248 -0.05788,0.0165 -0.124023,0.0358 l -0.03858,-0.10748 q 0.115755,-0.0496 0.23151,-0.0965 0.118511,-0.0468 0.220486,-0.0827 0.101975,-0.0358 0.176389,-0.0579 0.07717,-0.022 0.110243,-0.022 0.03858,0 0.06063,0.0138 0.02205,0.011 0.03032,0.0441 0.01102,0.0331 0.01378,0.0937 0.0028,0.0606 0.0028,0.15985 0,0.0303 -0.0028,0.0827 -0.0028,0.0524 -0.0083,0.113 -0.0028,0.0579 -0.0083,0.11576 -0.0055,0.0551 -0.0083,0.0882 0.148828,-0.18741 0.300412,-0.32246 0.151584,-0.13505 0.297656,-0.22048 0.146072,-0.0882 0.28112,-0.12678 0.137803,-0.0413 0.261827,-0.0413 0.08544,0 0.151584,0.0248 0.0689,0.0248 0.112999,0.0827 0.0441,0.0551 0.06614,0.14883 0.02481,0.0909 0.02481,0.22324 0,0.0965 -0.01929,0.23978 -0.01654,0.14332 -0.0441,0.31144 -0.02756,0.16536 -0.06063,0.34175 -0.03307,0.17639 -0.06063,0.33624 -0.02756,0.15985 -0.04685,0.29215 -0.01654,0.12953 -0.01654,0.2067 0,0.0937 0.02481,0.12954 0.02481,0.0331 0.07441,0.0331 0.06339,0 0.146072,-0.0221 0.08268,-0.0221 0.198437,-0.0689 z" />
      <path
         inkscape:connector-curvature="0"
         id="path5123"
         style="fill:#000000;fill-opacity:1;stroke-width:0.264583"
         d="m 61.668092,135.64872 q 0.0248,-0.16537 0.05788,-0.37483 0.03307,-0.21222 0.07166,-0.44648 -0.04685,-0.0496 -0.101974,-0.10198 -0.05237,-0.0551 -0.115756,-0.0992 -0.06063,-0.0441 -0.129535,-0.0717 -0.0689,-0.0276 -0.146072,-0.0276 -0.126779,0 -0.237022,0.0634 -0.107487,0.0606 -0.201194,0.16261 -0.09095,0.10198 -0.162608,0.23427 -0.07166,0.12953 -0.121267,0.27009 -0.04961,0.13781 -0.07717,0.27285 -0.0248,0.13505 -0.0248,0.24254 0,0.17914 0.03583,0.32246 0.03858,0.14332 0.09922,0.24529 0.06063,0.10198 0.137804,0.1571 0.07717,0.0551 0.157096,0.0551 0.07441,0 0.165365,-0.0689 0.09095,-0.0689 0.187413,-0.19017 0.09922,-0.12403 0.201193,-0.28939 0.104731,-0.16537 0.20395,-0.35553 z m 0.83509,0.98116 q -0.234266,0.15709 -0.38585,0.22875 -0.148828,0.0717 -0.242535,0.0717 -0.05237,0 -0.09646,-0.0441 -0.0441,-0.0413 -0.07717,-0.14331 -0.03032,-0.10473 -0.04961,-0.27561 -0.01929,-0.17088 -0.01929,-0.42444 -0.09371,0.17364 -0.20395,0.33349 -0.107487,0.15985 -0.225998,0.28388 -0.118511,0.12402 -0.242534,0.19568 -0.124024,0.0744 -0.242535,0.0744 -0.09371,0 -0.201193,-0.0579 -0.107487,-0.0551 -0.201194,-0.17363 -0.09095,-0.12127 -0.151584,-0.30592 -0.06063,-0.18742 -0.06063,-0.44373 0,-0.21773 0.04685,-0.42168 0.04685,-0.20671 0.14056,-0.39136 0.09646,-0.18742 0.239778,-0.34727 0.146072,-0.16261 0.341753,-0.29214 0.07717,-0.0496 0.165365,-0.0937 0.09095,-0.0469 0.184657,-0.0827 0.09371,-0.0386 0.187413,-0.0606 0.09371,-0.022 0.179145,-0.022 0.0689,0 0.140559,0.0441 0.07166,0.0441 0.143316,0.10198 0.03307,-0.2012 0.06063,-0.39412 0.03032,-0.19293 0.05236,-0.35829 0.02205,-0.16812 0.03583,-0.30317 0.01378,-0.13505 0.01378,-0.22048 0,-0.0634 -0.01102,-0.0992 -0.0083,-0.0386 -0.02756,-0.0551 -0.01654,-0.0193 -0.03859,-0.0248 -0.02205,-0.006 -0.04685,-0.006 -0.0248,0 -0.07441,0.0138 -0.04685,0.011 -0.09646,0.0248 -0.05788,0.0165 -0.124024,0.0358 l -0.03307,-0.10748 q 0.115755,-0.0524 0.23151,-0.0992 0.118511,-0.0469 0.21773,-0.0827 0.101974,-0.0358 0.179144,-0.0579 0.07717,-0.0221 0.110243,-0.0221 0.07717,0 0.112999,0.0496 0.03859,0.0496 0.03859,0.17639 0,0.10748 -0.01929,0.27836 -0.01929,0.17088 -0.05237,0.38309 -0.03032,0.21222 -0.07166,0.452 -0.03858,0.23978 -0.08268,0.48507 -0.04134,0.24253 -0.08268,0.47956 -0.03859,0.23702 -0.07166,0.44097 -0.03032,0.20395 -0.04961,0.36656 -0.01929,0.15985 -0.01929,0.25356 0,0.3197 0.03032,0.46577 0.03032,0.14332 0.09371,0.14332 0.07166,0 0.146072,-0.0138 0.07717,-0.0165 0.173632,-0.0579 z" />
      <path
         inkscape:connector-curvature="0"
         id="path5125"
         style="fill:#000000;fill-opacity:1;stroke-width:0.264583"
         d="m 67.337337,133.46315 q -0.173633,0.0358 -0.275607,0.0717 -0.101975,0.0331 -0.14056,0.11024 l -1.378037,3.00963 q -0.02756,0.0606 -0.08268,0.10473 -0.05512,0.0441 -0.118511,0.0717 -0.06339,0.0303 -0.124023,0.0468 -0.05788,0.0165 -0.09095,0.0248 l -0.661457,-3.25768 q -0.01378,-0.0717 -0.08819,-0.11576 -0.07166,-0.0441 -0.234266,-0.0661 l 0.01654,-0.11851 h 1.096918 l -0.01654,0.11851 q -0.198437,0.0138 -0.281119,0.0551 -0.08268,0.0413 -0.06339,0.12678 l 0.523654,2.63481 1.212673,-2.63481 q 0.03858,-0.0799 -0.04961,-0.11576 -0.08819,-0.0386 -0.286632,-0.0661 l 0.01654,-0.11851 h 1.044553 z" />
      <path
         inkscape:connector-curvature="0"
         id="path5127"
         style="fill:#000000;fill-opacity:1;stroke-width:0.264583"
         d="m 68.36535,136.61885 q -0.129536,0.0772 -0.234267,0.13505 -0.101975,0.0579 -0.187413,0.0965 -0.08544,0.0413 -0.15434,0.0606 -0.0689,0.0193 -0.129535,0.0193 -0.09371,0 -0.148828,-0.0882 -0.05512,-0.0854 -0.05512,-0.23427 0,-0.0827 0.01929,-0.23427 0.02205,-0.15434 0.05236,-0.33899 0.03032,-0.18742 0.06615,-0.38861 0.03583,-0.20395 0.06615,-0.38585 0.03032,-0.18466 0.04961,-0.32522 0.02205,-0.14331 0.02205,-0.21222 0,-0.0634 -0.0083,-0.0992 -0.0083,-0.0386 -0.02205,-0.0551 -0.01378,-0.0193 -0.03583,-0.0248 -0.02205,-0.006 -0.04685,-0.006 -0.02205,0 -0.0689,0.011 -0.0441,0.008 -0.09095,0.0221 -0.05236,0.0138 -0.115755,0.0331 l -0.03858,-0.10197 q 0.115755,-0.0524 0.228754,-0.0992 0.115755,-0.0496 0.214974,-0.0854 0.09922,-0.0358 0.173633,-0.0579 0.07441,-0.022 0.110243,-0.022 0.07717,0 0.107486,0.0524 0.03307,0.0524 0.03307,0.17915 0,0.0799 -0.02205,0.23702 -0.01929,0.15434 -0.05237,0.34726 -0.03307,0.19293 -0.0689,0.40515 -0.03583,0.20946 -0.0689,0.40238 -0.03307,0.19293 -0.05512,0.35002 -0.01929,0.15435 -0.01929,0.23427 0,0.0854 0.01654,0.12402 0.01929,0.0386 0.06615,0.0386 0.08544,0 0.162608,-0.0221 0.07993,-0.0221 0.192925,-0.0689 z m 0.07441,-3.27972 q 0,0.0772 -0.02481,0.15434 -0.02205,0.0744 -0.06615,0.1378 -0.0441,0.0606 -0.107487,0.0992 -0.06339,0.0386 -0.14056,0.0386 -0.08544,0 -0.132291,-0.0496 -0.04685,-0.0496 -0.04685,-0.14331 0,-0.0744 0.0248,-0.14883 0.02481,-0.0772 0.0689,-0.14056 0.0441,-0.0634 0.104731,-0.10197 0.06339,-0.0413 0.14056,-0.0413 0.08544,0 0.132291,0.0524 0.04685,0.0496 0.04685,0.14332 z" />
      <path
         inkscape:connector-curvature="0"
         id="path5129"
         style="fill:#000000;fill-opacity:1;stroke-width:0.264583"
         d="m 71.182061,136.61885 q -0.250803,0.14883 -0.427192,0.22876 -0.173632,0.0827 -0.278363,0.0827 -0.09646,0 -0.151584,-0.0882 -0.05237,-0.0854 -0.05237,-0.23427 0,-0.0496 0.01654,-0.17639 0.01929,-0.12953 0.04685,-0.30041 0.02756,-0.17088 0.06063,-0.3638 0.03307,-0.19293 0.06063,-0.36656 0.02756,-0.17363 0.0441,-0.31144 0.01929,-0.1378 0.01929,-0.20119 0,-0.20946 -0.0441,-0.29214 -0.0441,-0.0827 -0.165365,-0.0827 -0.03583,0 -0.126779,0.0441 -0.08819,0.0441 -0.201193,0.13229 -0.113,0.0882 -0.237023,0.22049 -0.121267,0.13229 -0.223242,0.30868 -0.07717,0.13229 -0.126779,0.31695 -0.04685,0.18465 -0.09371,0.45199 -0.0441,0.24529 -0.05788,0.42168 -0.01103,0.17639 -0.0055,0.339 -0.03583,0.0193 -0.09095,0.0441 -0.05236,0.0221 -0.110243,0.0469 -0.05512,0.0248 -0.107487,0.0469 -0.05236,0.0248 -0.08544,0.0441 l -0.09095,-0.0854 q 0.03859,-0.1819 0.07441,-0.39412 0.03858,-0.21221 0.07166,-0.42443 0.03583,-0.21498 0.06615,-0.42168 0.03032,-0.20946 0.05237,-0.3831 0.02205,-0.17638 0.03307,-0.30868 0.01378,-0.13229 0.01378,-0.19568 0,-0.0634 -0.0083,-0.0992 -0.0055,-0.0386 -0.01929,-0.0551 -0.01102,-0.0193 -0.03032,-0.0248 -0.01929,-0.006 -0.0441,-0.006 -0.02481,0 -0.07441,0.011 -0.04685,0.011 -0.09646,0.0248 -0.05788,0.0165 -0.124023,0.0358 l -0.03858,-0.10748 q 0.115755,-0.0496 0.23151,-0.0965 0.118511,-0.0468 0.220486,-0.0827 0.101975,-0.0358 0.176389,-0.0579 0.07717,-0.022 0.110243,-0.022 0.03858,0 0.06063,0.0138 0.02205,0.011 0.03032,0.0441 0.01103,0.0331 0.01378,0.0937 0.0028,0.0606 0.0028,0.15985 0,0.0303 -0.0028,0.0827 -0.0028,0.0524 -0.0083,0.113 -0.0028,0.0579 -0.0083,0.11576 -0.0055,0.0551 -0.0083,0.0882 0.148828,-0.18741 0.300412,-0.32246 0.151584,-0.13505 0.297656,-0.22048 0.146072,-0.0882 0.28112,-0.12678 0.137804,-0.0413 0.261827,-0.0413 0.08544,0 0.151584,0.0248 0.0689,0.0248 0.112999,0.0827 0.0441,0.0551 0.06615,0.14883 0.0248,0.0909 0.0248,0.22324 0,0.0965 -0.01929,0.23978 -0.01654,0.14332 -0.0441,0.31144 -0.02756,0.16536 -0.06063,0.34175 -0.03307,0.17639 -0.06063,0.33624 -0.02756,0.15985 -0.04685,0.29215 -0.01654,0.12953 -0.01654,0.2067 0,0.0937 0.0248,0.12954 0.02481,0.0331 0.07441,0.0331 0.06339,0 0.146072,-0.0221 0.08268,-0.0221 0.198438,-0.0689 z" />
      <path
         inkscape:connector-curvature="0"
         id="path5131"
         style="fill:#000000;fill-opacity:1;stroke-width:0.264583"
         d="m 72.95146,135.62942 q 0.01929,-0.12402 0.04134,-0.25631 0.02481,-0.13505 0.04685,-0.25907 0.02481,-0.12403 0.04134,-0.226 0.01929,-0.10473 0.03032,-0.16537 -0.04134,-0.0331 -0.09095,-0.0661 -0.04961,-0.0358 -0.107487,-0.0634 -0.05512,-0.0303 -0.118511,-0.0469 -0.06063,-0.0193 -0.12678,-0.0193 -0.126779,0 -0.239778,0.0634 -0.110243,0.0606 -0.206706,0.16261 -0.09371,0.10198 -0.170877,0.23427 -0.07441,0.12953 -0.126779,0.27009 -0.05237,0.13781 -0.08268,0.27285 -0.02756,0.13505 -0.02756,0.24254 0,0.17914 0.03032,0.32246 0.03032,0.14332 0.08268,0.24529 0.05237,0.10198 0.124023,0.1571 0.07166,0.0551 0.154341,0.0551 0.06614,0 0.159852,-0.0827 0.09646,-0.0854 0.198437,-0.21773 0.104731,-0.13505 0.206706,-0.29766 0.101975,-0.16536 0.181901,-0.32522 z m 0.82131,1.00046 q -0.239779,0.15709 -0.388607,0.22875 -0.146072,0.0717 -0.225998,0.0717 -0.04961,0 -0.09646,-0.0358 -0.0441,-0.0331 -0.07993,-0.12678 -0.03583,-0.0965 -0.05788,-0.26458 -0.01929,-0.16812 -0.01929,-0.43546 -0.07166,0.12678 -0.176389,0.27836 -0.101975,0.14883 -0.220486,0.28112 -0.118511,0.12954 -0.245291,0.21498 -0.124023,0.0882 -0.239778,0.0882 -0.09095,0 -0.195682,-0.0524 -0.101974,-0.0524 -0.190169,-0.16536 -0.08544,-0.11575 -0.143316,-0.2949 -0.05788,-0.1819 -0.05788,-0.44097 0,-0.21773 0.04961,-0.42444 0.05237,-0.20946 0.15434,-0.39963 0.101975,-0.19017 0.248047,-0.35553 0.148828,-0.16812 0.344509,-0.30041 0.07441,-0.0496 0.162609,-0.0965 0.09095,-0.0468 0.184657,-0.0827 0.09646,-0.0358 0.190169,-0.0579 0.09371,-0.022 0.179145,-0.022 0.05788,0 0.112999,0.0165 0.05512,0.0138 0.104731,0.0386 0.05237,0.0248 0.09922,0.0551 0.04685,0.0276 0.08819,0.0551 0.06339,-0.0469 0.135047,-0.0854 0.07166,-0.0413 0.148828,-0.0799 l 0.05512,0.0965 q -0.04685,0.0386 -0.07717,0.0689 -0.03032,0.0303 -0.05512,0.0717 -0.02205,0.0386 -0.03858,0.0965 -0.01654,0.0579 -0.03583,0.15158 -0.04134,0.19844 -0.07993,0.4079 -0.03583,0.20671 -0.06339,0.39137 -0.0248,0.18465 -0.04134,0.32521 -0.01378,0.14056 -0.01378,0.2012 0,0.15709 0.0083,0.26458 0.01102,0.10749 0.02756,0.17363 0.01654,0.0634 0.04134,0.0937 0.02481,0.0276 0.05788,0.0276 0.05512,0 0.129536,-0.0138 0.07717,-0.0165 0.187413,-0.0634 z" />
      <path
         inkscape:connector-curvature="0"
         id="path5133"
         style="fill:#000000;fill-opacity:1;stroke-width:0.264583"
         d="m 76.297333,134.44707 q 0,0.0937 -0.05236,0.24253 -0.04961,0.14607 -0.165365,0.39412 -0.112999,0.24529 -0.300412,0.61185 -0.184657,0.36656 -0.451996,0.89572 -0.184657,0.36105 -0.369314,0.65595 -0.181901,0.2949 -0.374826,0.50436 -0.192925,0.21222 -0.402387,0.32797 -0.209462,0.11576 -0.443728,0.11576 -0.08268,0 -0.15434,-0.0138 -0.07441,-0.0138 -0.12678,-0.0358 -0.05512,-0.0193 -0.08544,-0.0441 -0.03307,-0.0248 -0.03307,-0.0469 0,-0.0331 0.02756,-0.0937 0.02481,-0.0579 0.06339,-0.12402 0.03859,-0.0634 0.08544,-0.11851 0.0441,-0.0524 0.08268,-0.0717 0.06615,0.0441 0.118511,0.0689 0.04961,0.0248 0.09371,0.0358 0.0441,0.011 0.08819,0.011 0.0441,0.003 0.09371,0.003 0.223242,0 0.43546,-0.21773 0.214973,-0.21497 0.446484,-0.60909 -0.02756,-0.15985 -0.0689,-0.36105 -0.03858,-0.20119 -0.08819,-0.41341 -0.04685,-0.21222 -0.09922,-0.42443 -0.05237,-0.21498 -0.104731,-0.40239 -0.05237,-0.18741 -0.101975,-0.33624 -0.04685,-0.15159 -0.08819,-0.23702 -0.06339,-0.14056 -0.107487,-0.18191 -0.0441,-0.0441 -0.09095,-0.0441 -0.0248,0 -0.07166,0.011 -0.0441,0.008 -0.08819,0.0221 -0.05236,0.0138 -0.110243,0.0331 l -0.03307,-0.10197 q 0.115755,-0.0524 0.220486,-0.0992 0.104731,-0.0496 0.187413,-0.0854 0.08544,-0.0358 0.148828,-0.0579 0.06339,-0.022 0.09646,-0.022 0.03858,0 0.06615,0.0193 0.03032,0.0193 0.05788,0.0606 0.02756,0.0413 0.05237,0.11024 0.02756,0.0661 0.06063,0.15986 0.05237,0.14883 0.112999,0.35277 0.06339,0.2012 0.12678,0.43546 0.06339,0.23427 0.124023,0.48783 0.06063,0.2508 0.110243,0.49885 0.08819,-0.17363 0.176389,-0.35278 0.09095,-0.1819 0.173633,-0.35829 0.08268,-0.17639 0.151584,-0.33624 0.07166,-0.16261 0.124023,-0.29766 0.05512,-0.13504 0.08544,-0.23151 0.03032,-0.0992 0.03032,-0.14882 0,-0.13781 -0.146072,-0.14608 -0.08819,-0.008 -0.250803,0.0634 l -0.04961,-0.10197 q 0.198437,-0.11576 0.347265,-0.16536 0.151584,-0.0496 0.245291,-0.0496 0.04685,0 0.08819,0.008 0.04134,0.006 0.07166,0.0276 0.03032,0.0221 0.04685,0.0634 0.01929,0.0414 0.01929,0.11025 z" />
      <path
         inkscape:connector-curvature="0"
         id="path5135"
         style="fill:#000000;fill-opacity:1;stroke-width:0.264583"
         d="m 78.055708,135.62942 q 0.01929,-0.12402 0.04134,-0.25631 0.02481,-0.13505 0.04685,-0.25907 0.02481,-0.12403 0.04134,-0.226 0.01929,-0.10473 0.03032,-0.16537 -0.04134,-0.0331 -0.09095,-0.0661 -0.04961,-0.0358 -0.107487,-0.0634 -0.05512,-0.0303 -0.118511,-0.0469 -0.06063,-0.0193 -0.12678,-0.0193 -0.126779,0 -0.239778,0.0634 -0.110243,0.0606 -0.206706,0.16261 -0.09371,0.10198 -0.170876,0.23427 -0.07441,0.12953 -0.12678,0.27009 -0.05237,0.13781 -0.08268,0.27285 -0.02756,0.13505 -0.02756,0.24254 0,0.17914 0.03032,0.32246 0.03032,0.14332 0.08268,0.24529 0.05237,0.10198 0.124024,0.1571 0.07166,0.0551 0.15434,0.0551 0.06614,0 0.159852,-0.0827 0.09646,-0.0854 0.198437,-0.21773 0.104731,-0.13505 0.206706,-0.29766 0.101975,-0.16536 0.181901,-0.32522 z m 0.82131,1.00046 q -0.239779,0.15709 -0.388607,0.22875 -0.146071,0.0717 -0.225998,0.0717 -0.04961,0 -0.09646,-0.0358 -0.0441,-0.0331 -0.07993,-0.12678 -0.03583,-0.0965 -0.05788,-0.26458 -0.01929,-0.16812 -0.01929,-0.43546 -0.07166,0.12678 -0.176389,0.27836 -0.101975,0.14883 -0.220486,0.28112 -0.118511,0.12954 -0.245291,0.21498 -0.124023,0.0882 -0.239778,0.0882 -0.09095,0 -0.195681,-0.0524 -0.101975,-0.0524 -0.19017,-0.16536 -0.08544,-0.11575 -0.143315,-0.2949 -0.05788,-0.1819 -0.05788,-0.44097 0,-0.21773 0.04961,-0.42444 0.05237,-0.20946 0.15434,-0.39963 0.101975,-0.19017 0.248047,-0.35553 0.148828,-0.16812 0.344509,-0.30041 0.07441,-0.0496 0.162609,-0.0965 0.09095,-0.0468 0.184657,-0.0827 0.09646,-0.0358 0.190169,-0.0579 0.09371,-0.022 0.179145,-0.022 0.05788,0 0.112999,0.0165 0.05512,0.0138 0.104731,0.0386 0.05237,0.0248 0.09922,0.0551 0.04685,0.0276 0.08819,0.0551 0.06339,-0.0469 0.135047,-0.0854 0.07166,-0.0413 0.148828,-0.0799 l 0.05512,0.0965 q -0.04685,0.0386 -0.07717,0.0689 -0.03032,0.0303 -0.05512,0.0717 -0.02205,0.0386 -0.03858,0.0965 -0.01654,0.0579 -0.03583,0.15158 -0.04134,0.19844 -0.07993,0.4079 -0.03583,0.20671 -0.06339,0.39137 -0.0248,0.18465 -0.04134,0.32521 -0.01378,0.14056 -0.01378,0.2012 0,0.15709 0.0083,0.26458 0.01102,0.10749 0.02756,0.17363 0.01654,0.0634 0.04134,0.0937 0.02481,0.0276 0.05788,0.0276 0.05512,0 0.129535,-0.0138 0.07717,-0.0165 0.187413,-0.0634 z" />
      <path
         inkscape:connector-curvature="0"
         id="path5137"
         style="fill:#000000;fill-opacity:1;stroke-width:0.264583"
         d="m 83.625736,133.46315 q -0.181901,0.0276 -0.275607,0.0772 -0.09095,0.0468 -0.09646,0.0937 l -0.451996,3.2687 q -0.05788,-0.008 -0.104731,-0.0193 -0.04685,-0.011 -0.08544,-0.0331 -0.03858,-0.022 -0.07166,-0.0579 -0.03307,-0.0386 -0.06615,-0.0992 l -1.369769,-2.64308 -0.338997,2.48047 q -0.0083,0.0331 0.0689,0.0854 0.07717,0.0524 0.264583,0.0827 l -0.01654,0.11851 h -1.005968 l 0.01654,-0.11851 q 0.187413,-0.0248 0.278363,-0.0772 0.09371,-0.0524 0.09922,-0.0909 l 0.402387,-2.89388 q -0.07166,-0.0827 -0.157096,-0.11575 -0.08544,-0.0358 -0.20395,-0.0579 l 0.01654,-0.11851 h 0.490581 q 0.06063,0 0.09371,0.003 0.03583,0.003 0.06063,0.0248 0.02756,0.0193 0.04961,0.0634 0.02481,0.0441 0.06615,0.12402 l 1.33394,2.54661 0.338997,-2.47219 q 0.0028,-0.0165 -0.01378,-0.0386 -0.01654,-0.0248 -0.05788,-0.0469 -0.03858,-0.0248 -0.10473,-0.0469 -0.06615,-0.022 -0.162609,-0.0386 l 0.01654,-0.11851 h 1.003211 z" />
      <path
         inkscape:connector-curvature="0"
         id="path5139"
         style="fill:#000000;fill-opacity:1;stroke-width:0.264583"
         d="m 85.3345,135.42823 q 0,-0.42168 -0.15434,-0.64492 -0.15434,-0.22324 -0.438216,-0.22324 -0.198437,0 -0.333485,0.11575 -0.135047,0.113 -0.21773,0.28663 -0.08268,0.17364 -0.118511,0.37759 -0.03583,0.20119 -0.03583,0.37758 0,0.18465 0.0441,0.35002 0.04685,0.16261 0.12678,0.28663 0.08268,0.12127 0.190169,0.19293 0.110243,0.0717 0.237022,0.0717 0.12678,0 0.225998,-0.0551 0.101975,-0.0579 0.179145,-0.15158 0.07993,-0.0965 0.135048,-0.21773 0.05512,-0.12402 0.09095,-0.25632 0.03583,-0.13229 0.05237,-0.26458 0.01654,-0.13229 0.01654,-0.24529 z m 0.394119,-0.15158 q 0,0.18465 -0.04134,0.37482 -0.04134,0.18741 -0.121268,0.36656 -0.07993,0.17639 -0.198437,0.339 -0.115755,0.15985 -0.270095,0.28663 -0.07166,0.0579 -0.151584,0.11024 -0.07993,0.0524 -0.162609,0.091 -0.08268,0.0413 -0.16812,0.0634 -0.08544,0.0221 -0.168121,0.0221 -0.192925,0 -0.344509,-0.0827 -0.148828,-0.0799 -0.253559,-0.22049 -0.101975,-0.14331 -0.157096,-0.33624 -0.05237,-0.19568 -0.05237,-0.42168 0,-0.19844 0.03307,-0.38034 0.03307,-0.18465 0.107487,-0.35553 0.07441,-0.17088 0.198438,-0.32797 0.124023,-0.1571 0.305924,-0.30317 0.14056,-0.11024 0.30868,-0.18741 0.168121,-0.0772 0.338997,-0.0772 0.214974,0 0.366558,0.0772 0.151584,0.0772 0.245291,0.21497 0.09646,0.1378 0.14056,0.32797 0.0441,0.19017 0.0441,0.41893 z" />
      <path
         inkscape:connector-curvature="0"
         id="path5141"
         style="fill:#000000;fill-opacity:1;stroke-width:0.264583"
         d="m 87.473214,136.49483 q -0.135048,0.10473 -0.270095,0.18741 -0.135048,0.0799 -0.256315,0.13505 -0.121267,0.0551 -0.220486,0.0827 -0.09646,0.0303 -0.157096,0.0303 -0.0689,0 -0.132292,-0.0413 -0.06063,-0.0413 -0.110243,-0.113 -0.04685,-0.0744 -0.07441,-0.17639 -0.02756,-0.10197 -0.02756,-0.22324 0,-0.0524 0.0028,-0.10473 0.0028,-0.0524 0.0055,-0.10749 0.0055,-0.0579 0.01102,-0.12127 0.0083,-0.0634 0.01929,-0.14056 l 0.212218,-1.33118 h -0.396874 l -0.04134,-0.0854 0.278364,-0.16261 H 86.5141 l 0.01654,-0.0965 q 0.01654,-0.113 0.03307,-0.18741 0.01929,-0.0744 0.04134,-0.12402 0.0248,-0.0496 0.05236,-0.0799 0.02756,-0.0331 0.06339,-0.0606 l 0.278363,-0.19844 0.07717,0.0689 q -0.01929,0.0248 -0.04134,0.0882 -0.01929,0.0551 -0.04685,0.1571 -0.02481,0.10198 -0.05237,0.27285 l -0.02481,0.15985 h 0.686262 l 0.05512,0.0772 q -0.02756,0.0386 -0.07717,0.0854 -0.04685,0.0441 -0.09922,0.0854 -0.05237,0.0413 -0.101975,0.0772 -0.04685,0.0331 -0.07166,0.0469 -0.01654,-0.0386 -0.04685,-0.0606 -0.02756,-0.0248 -0.07717,-0.0386 -0.04961,-0.0138 -0.124023,-0.0193 -0.07166,-0.006 -0.173633,-0.006 h -0.0083 l -0.195681,1.26504 q -0.0083,0.0524 -0.01654,0.113 -0.0055,0.0579 -0.01102,0.113 -0.0028,0.0524 -0.0055,0.0992 0,0.0469 0,0.0744 0,0.17088 0.06063,0.25356 0.06339,0.0799 0.14056,0.0799 0.09646,0 0.234266,-0.0413 0.14056,-0.0413 0.347266,-0.13504 z" />
      <path
         inkscape:connector-curvature="0"
         id="path5143"
         style="fill:#000000;fill-opacity:1;stroke-width:0.264583"
         d="m 88.683128,134.66204 q -0.09095,0.0827 -0.179145,0.20119 -0.08544,0.11852 -0.157096,0.25632 -0.0689,0.1378 -0.115755,0.28939 -0.04685,0.14883 -0.05788,0.2949 0.361046,-0.14056 0.570508,-0.25356 0.212217,-0.11576 0.319704,-0.21773 0.107487,-0.10198 0.137804,-0.19568 0.03032,-0.0937 0.03032,-0.19017 0,-0.0854 -0.02205,-0.14607 -0.02205,-0.0634 -0.05788,-0.0992 -0.03583,-0.0386 -0.08268,-0.0551 -0.0441,-0.0193 -0.09095,-0.0193 -0.0441,0 -0.129535,0.0331 -0.08544,0.0303 -0.165365,0.10197 z m 0.989431,0.0606 q 0,0.0772 -0.01929,0.16261 -0.01654,0.0854 -0.07441,0.17639 -0.05512,0.091 -0.157096,0.19017 -0.09922,0.0992 -0.267339,0.20671 -0.165365,0.10473 -0.405143,0.22048 -0.239779,0.113 -0.573264,0.23702 0.01654,0.15435 0.06339,0.28112 0.04961,0.12678 0.112999,0.21773 0.06615,0.091 0.14056,0.14332 0.07717,0.0496 0.151584,0.0496 0.05788,0 0.14056,-0.011 0.08268,-0.0138 0.190169,-0.0551 0.110243,-0.0413 0.245291,-0.12126 0.137803,-0.0799 0.303168,-0.21222 0.03032,0.0165 0.05237,0.0551 0.0248,0.0358 0.03307,0.0579 -0.225998,0.19568 -0.399631,0.31695 -0.173632,0.11851 -0.311436,0.1819 -0.135048,0.0661 -0.245291,0.0882 -0.107487,0.0221 -0.206705,0.0221 -0.09095,0 -0.206706,-0.0524 -0.115755,-0.0496 -0.21773,-0.15985 -0.101974,-0.113 -0.173632,-0.29214 -0.0689,-0.1819 -0.0689,-0.44373 0,-0.21497 0.05237,-0.42168 0.05237,-0.20946 0.148828,-0.39963 0.09922,-0.19292 0.242535,-0.3638 0.143316,-0.17088 0.325216,-0.31144 0.06339,-0.0496 0.143316,-0.0937 0.07993,-0.0469 0.165365,-0.0799 0.08819,-0.0358 0.176389,-0.0551 0.09095,-0.0193 0.176388,-0.0193 0.118512,0 0.20395,0.0441 0.08819,0.0413 0.146072,0.11025 0.05788,0.0689 0.08544,0.15709 0.02756,0.0854 0.02756,0.17363 z" />
      <path
         inkscape:connector-curvature="0"
         id="path5145"
         style="fill:#000000;fill-opacity:1;stroke-width:0.264583"
         d="m 91.745132,134.49116 q -0.05512,0.0634 -0.110243,0.11576 -0.05236,0.0496 -0.09922,0.0882 -0.04685,0.0386 -0.08544,0.0606 -0.03583,0.0193 -0.05512,0.0193 -0.03583,0 -0.07717,-0.0468 -0.03858,-0.0496 -0.09095,-0.10473 -0.04961,-0.0579 -0.118511,-0.10473 -0.06615,-0.0496 -0.157096,-0.0496 -0.07717,0 -0.151585,0.0303 -0.07441,0.0276 -0.135047,0.0799 -0.05788,0.0496 -0.09646,0.12402 -0.03583,0.0717 -0.03583,0.15985 0,0.0965 0.09095,0.20395 0.09371,0.10749 0.316948,0.20947 0.112999,0.0524 0.225998,0.12126 0.112999,0.0689 0.201194,0.15986 0.09095,0.0882 0.146072,0.20394 0.05788,0.113 0.05788,0.25908 0,0.19016 -0.09922,0.35829 -0.09646,0.16536 -0.250803,0.28938 -0.151584,0.12127 -0.338997,0.19017 -0.187413,0.0717 -0.366558,0.0717 -0.129536,0 -0.256315,-0.0386 -0.12678,-0.0358 -0.225998,-0.0937 -0.09922,-0.0579 -0.162609,-0.12402 -0.06063,-0.0689 -0.06063,-0.12678 0,-0.0303 0.03307,-0.0882 0.03307,-0.0579 0.07717,-0.113 0.04685,-0.0579 0.09371,-0.0992 0.04685,-0.0441 0.07717,-0.0441 0.01929,0 0.03858,0.0358 0.02205,0.0331 0.05237,0.0854 0.03307,0.0496 0.07717,0.11025 0.0441,0.0606 0.110243,0.113 0.06615,0.0496 0.15434,0.0854 0.09095,0.0331 0.212218,0.0331 0.09646,0 0.181901,-0.0358 0.08819,-0.0386 0.151584,-0.0992 0.06615,-0.0634 0.101974,-0.14607 0.03859,-0.0854 0.03859,-0.1819 0,-0.10749 -0.0441,-0.19293 -0.0441,-0.0882 -0.118511,-0.15709 -0.07166,-0.0717 -0.16812,-0.12954 -0.09646,-0.0579 -0.201194,-0.10749 -0.146072,-0.0689 -0.24529,-0.1378 -0.09922,-0.0689 -0.159853,-0.14056 -0.06063,-0.0717 -0.08819,-0.15158 -0.02481,-0.0799 -0.02481,-0.16813 0,-0.17363 0.08544,-0.31694 0.08544,-0.14332 0.220485,-0.24529 0.135048,-0.10474 0.300413,-0.15986 0.16812,-0.0579 0.330728,-0.0579 0.14056,0 0.237023,0.0331 0.09646,0.0331 0.16812,0.0772 0.07441,0.0441 0.129536,0.0854 0.05512,0.0413 0.112999,0.0579 z" />
    </g>
  </g>
  <g
     sodipodi:insensitive="true"
     inkscape:groupmode="layer"
     id="layer11"
     inkscape:label="text"
     style="display:inline"
     transform="translate(-2.9999998,-3.0000002)">
    <text
       id="text1780"
       y="107.37089"
       x="21.469273"
       style="font-style:normal;font-variant:normal;font-weight:normal;font-stretch:normal;font-size:7.05556px;line-height:1.25;font-family:'Nunito Sans';-inkscape-font-specification:'Nunito Sans Normal';font-variant-ligatures:normal;font-variant-caps:normal;font-variant-numeric:normal;font-variant-east-asian:normal;letter-spacing:0.264583px;word-spacing:0.79375px;display:inline;fill:#faa41b;fill-opacity:1;stroke:none;stroke-width:0.264583"
       xml:space="preserve"><tspan
         style="font-style:normal;font-variant:normal;font-weight:normal;font-stretch:normal;font-size:7.05556px;font-family:'Nunito Sans';-inkscape-font-specification:'Nunito Sans Normal';font-variant-ligatures:normal;font-variant-caps:normal;font-variant-numeric:normal;font-variant-east-asian:normal;letter-spacing:0.264583px;word-spacing:0.79375px;fill:#faa41b;fill-opacity:1;stroke-width:0.264583"
         y="107.37089"
         x="21.469273"
         id="tspan1778"
         sodipodi:role="line">BHIKKHU MANUAL</tspan></text>
    <text
       id="text7759"
       y="128.12515"
       x="32.944378"
       style="font-style:normal;font-variant:normal;font-weight:normal;font-stretch:normal;font-size:5.64444px;line-height:1.25;font-family:'Nunito Sans';-inkscape-font-specification:'Nunito Sans Normal';font-variant-ligatures:normal;font-variant-caps:normal;font-variant-numeric:normal;font-variant-east-asian:normal;letter-spacing:0px;word-spacing:0px;display:inline;fill:#faa41b;fill-opacity:1;stroke:none;stroke-width:0.264583"
       xml:space="preserve"><tspan
         style="font-style:normal;font-variant:normal;font-weight:normal;font-stretch:normal;font-size:5.64444px;font-family:'Nunito Sans';-inkscape-font-specification:'Nunito Sans Normal';font-variant-ligatures:normal;font-variant-caps:normal;font-variant-numeric:normal;font-variant-east-asian:normal;fill:#faa41b;fill-opacity:1;stroke-width:0.264583"
         y="128.12515"
         x="32.944378"
         id="tspan7757"
         sodipodi:role="line">Handbook Edition</tspan></text>
    <text
       id="text7763"
       y="136.81729"
       x="19.254864"
       style="font-style:italic;font-variant:normal;font-weight:normal;font-stretch:normal;font-size:5.64444px;line-height:1.25;font-family:'Gentium Plus';-inkscape-font-specification:'Gentium Plus Italic';font-variant-ligatures:normal;font-variant-caps:normal;font-variant-numeric:normal;font-variant-east-asian:normal;letter-spacing:0px;word-spacing:0px;display:inline;fill:#faa41b;fill-opacity:1;stroke:none;stroke-width:0.264583"
       xml:space="preserve"><tspan
         y="136.81729"
         x="19.254864"
         id="tspan7771"
         sodipodi:role="line"
         style="stroke-width:0.264583">Essential Chants and Vinaya Notes</tspan></text>
  </g>
  <g
     id="layer1"
     inkscape:groupmode="layer"
     inkscape:label="page area overlay"
     style="display:none;opacity:0.464687"
     transform="translate(-2.9999998,-3.0000002)"
     sodipodi:insensitive="true">
    <rect
       y="3.0000002"
       x="2.9999998"
       height="148"
       width="105"
       id="rect833"
       style="fill:#008080;stroke:none;stroke-width:0.264999" />
  </g>
</svg>
